<svg xmlns="http://www.w3.org/2000/svg" xmlns:xlink="http://www.w3.org/1999/xlink" version="1.1" x="0px" y="0px" viewBox="0 0 512 640" style="enable-background:new 0 0 512 512;" xml:space="preserve"><g><g><g><path d="M270,320c-3.018,0-5.874-1.362-7.772-3.708l-170-210c-2.425-2.996-2.913-7.119-1.253-10.598     C92.634,92.215,96.146,90,100,90h340c3.854,0,7.366,2.215,9.025,5.694c1.66,3.479,1.172,7.602-1.253,10.598l-170,210     C275.874,318.638,273.018,320,270,320z M120.961,110L270,294.106L419.039,110H120.961z"/></g><g><path d="M326.667,500H213.333c-3.854,0-7.366-2.215-9.025-5.694c-1.66-3.479-1.172-7.602,1.253-10.598l56.667-70     c1.898-2.346,4.755-3.708,7.772-3.708s5.874,1.362,7.772,3.708l56.667,70c2.425,2.996,2.913,7.119,1.253,10.598     C334.033,497.785,330.521,500,326.667,500z M234.294,480h71.412L270,435.894L234.294,480z"/></g><g><path d="M270,430c-5.522,0-10-4.478-10-10V310c0-5.522,4.478-10,10-10s10,4.478,10,10v110C280,425.522,275.522,430,270,430z"/></g><g><path d="M400,160H140c-5.523,0-10-4.477-10-10s4.477-10,10-10h260c5.522,0,10,4.477,10,10S405.522,160,400,160z"/></g><g><path d="M110.093,189.969c-24.116,0-47.97-10.833-63.694-31.441c-26.758-35.07-19.996-85.371,15.073-112.129     c35.071-26.757,85.371-19.995,112.129,15.073c3.35,4.391,2.506,10.666-1.884,14.016c-4.39,3.349-10.666,2.507-14.016-1.884     c-20.069-26.301-57.793-31.372-84.097-11.305c-26.302,20.069-31.373,57.794-11.305,84.097s57.795,31.374,84.097,11.305     c4.391-3.35,10.665-2.507,14.016,1.884c3.35,4.391,2.506,10.666-1.884,14.016C144.067,184.635,127.015,189.969,110.093,189.969z"/></g><g><path d="M380,500H100c-5.523,0-10-4.478-10-10s4.477-10,10-10h280c5.522,0,10,4.478,10,10S385.522,500,380,500z"/></g><g><path d="M289.994,200c-2.237,0-4.489-0.748-6.352-2.281c-4.263-3.511-4.873-9.813-1.362-14.076l140-170     c1.9-2.307,4.731-3.643,7.72-3.643h60c5.522,0,10,4.477,10,10s-4.478,10-10,10h-55.281L297.72,196.357     C295.742,198.758,292.88,200,289.994,200z"/></g><g><path d="M241.696,230.001c-0.553,0-1.112-0.046-1.675-0.141l-49.304-8.316c-2.615-0.441-4.948-1.903-6.485-4.064     c-1.538-2.161-2.153-4.844-1.712-7.459l8.316-49.304c0.441-2.615,1.903-4.948,4.064-6.485c2.161-1.538,4.843-2.154,7.459-1.712     l49.304,8.316c5.446,0.918,9.116,6.078,8.197,11.524l-8.315,49.304C250.721,226.546,246.488,230.001,241.696,230.001z      M203.904,203.486l29.582,4.99l4.99-29.582l-29.582-4.99L203.904,203.486z"/></g><g><path d="M410,500c-2.63,0-5.21-1.07-7.07-2.931c-1.86-1.859-2.93-4.439-2.93-7.069s1.069-5.21,2.93-7.07S407.37,480,410,480     s5.21,1.069,7.069,2.93c1.86,1.86,2.931,4.44,2.931,7.07s-1.07,5.21-2.931,7.069C415.21,498.93,412.63,500,410,500z"/></g><g><path d="M440,500c-2.63,0-5.21-1.07-7.07-2.931c-1.86-1.859-2.93-4.439-2.93-7.069s1.069-5.21,2.93-7.07S437.37,480,440,480     s5.21,1.069,7.069,2.93c1.86,1.86,2.931,4.44,2.931,7.07s-1.07,5.21-2.931,7.069C445.21,498.93,442.63,500,440,500z"/></g><g><path d="M470,500c-2.63,0-5.21-1.07-7.07-2.931c-1.86-1.859-2.93-4.439-2.93-7.069s1.069-5.21,2.93-7.07S467.37,480,470,480     s5.21,1.069,7.069,2.93c1.86,1.86,2.931,4.44,2.931,7.07s-1.07,5.21-2.931,7.069C475.21,498.93,472.63,500,470,500z"/></g><g><path d="M150,350c-16.542,0-30-13.458-30-30s13.458-30,30-30s30,13.458,30,30S166.542,350,150,350z M150,310     c-5.514,0-10,4.486-10,10s4.486,10,10,10s10-4.486,10-10S155.514,310,150,310z"/></g><g><path d="M415,410c-19.299,0-35-15.701-35-35s15.701-35,35-35s35,15.701,35,35S434.299,410,415,410z M415,360     c-8.271,0-15,6.729-15,15s6.729,15,15,15s15-6.729,15-15S423.271,360,415,360z"/></g></g></g><text x="0" y="527" fill="#000000" font-size="5px" font-weight="bold" font-family="'Helvetica Neue', Helvetica, Arial-Unicode, Arial, Sans-serif">Created by Flatart</text><text x="0" y="532" fill="#000000" font-size="5px" font-weight="bold" font-family="'Helvetica Neue', Helvetica, Arial-Unicode, Arial, Sans-serif">from the Noun Project</text></svg>