<svg xmlns="http://www.w3.org/2000/svg" xmlns:xlink="http://www.w3.org/1999/xlink" version="1.1" x="0px" y="0px" viewBox="0 0 512 640" style="enable-background:new 0 0 512 512;" xml:space="preserve"><g><g><g><path d="M227.648,432.677c-0.884,0-1.774-0.117-2.648-0.357c-3.246-0.892-5.826-3.356-6.864-6.559l-91.298-281.61     c-1.462-4.512,0.445-9.43,4.567-11.775L331.312,18.632c4.799-2.732,10.906-1.055,13.637,3.746l113.743,199.906     c2.346,4.122,1.473,9.325-2.089,12.456L234.25,430.188C232.403,431.812,230.048,432.677,227.648,432.677z M148.375,145.73     l84.095,259.394l204.81-180.028L332.511,40.96L148.375,145.73z"/></g><g><path d="M450.006,237.232c-0.877,0-1.769-0.116-2.655-0.36l-313.649-86.163c-5.326-1.463-8.457-6.966-6.994-12.292     c1.463-5.326,6.97-8.457,12.292-6.994l313.65,86.163c5.325,1.463,8.456,6.966,6.993,12.292     C458.424,234.317,454.396,237.232,450.006,237.232z"/></g><g><path d="M84.591,490.003c-0.974,0-1.964-0.144-2.944-0.445c-5.278-1.624-8.241-7.22-6.617-12.498     c4.601-14.953,17.11-23.156,37.181-24.382c15.04-0.918,32.849,2.019,50.077,4.858c19.206,3.165,39.066,6.439,49.049,3.007     c5.583-1.919,9.08-4.797,10.693-8.799c3.35-8.309-1.221-20.485-3.265-24.476c-1.14-2.226-1.422-4.83-0.759-7.241L326.614,24.674     c1.462-5.326,6.964-8.458,12.292-6.994c5.325,1.463,8.456,6.966,6.993,12.292L238.255,421.815     c3.014,7.185,8.098,22.931,2.37,37.293c-2.639,6.616-8.735,15.519-22.787,20.349c-14.756,5.072-36.151,1.548-58.804-2.188     c-16.134-2.66-32.817-5.41-45.605-4.629c-14.472,0.884-17.869,5.702-19.284,10.3C92.822,487.239,88.865,490.002,84.591,490.003z"/></g><g><path d="M224.587,250c-16.542,0-30-13.458-30-30s13.458-30,30-30s30,13.458,30,30S241.129,250,224.587,250z M224.587,210     c-5.514,0-10,4.486-10,10s4.486,10,10,10s10-4.486,10-10S230.102,210,224.587,210z"/></g><g><path d="M334.588,280c-16.542,0-30-13.458-30-30s13.458-30,30-30s30,13.458,30,30S351.13,280,334.588,280z M334.588,240     c-5.514,0-10,4.486-10,10s4.486,10,10,10s10-4.486,10-10S340.102,240,334.588,240z"/></g><g><path d="M450,440c-16.542,0-30-13.458-30-30s13.458-30,30-30s30,13.458,30,30S466.542,440,450,440z M450,400     c-5.514,0-10,4.486-10,10s4.486,10,10,10s10-4.486,10-10S455.514,400,450,400z"/></g><g><path d="M80,250c-16.542,0-30-13.458-30-30s13.458-30,30-30s30,13.458,30,30S96.542,250,80,250z M80,210c-5.514,0-10,4.486-10,10     s4.486,10,10,10s10-4.486,10-10S85.514,210,80,210z"/></g><g><path d="M70,350c-2.63,0-5.21-1.07-7.07-2.931C61.07,345.21,60,342.63,60,340s1.07-5.21,2.93-7.07c1.86-1.86,4.44-2.93,7.07-2.93     c2.63,0,5.21,1.069,7.07,2.93S80,337.37,80,340s-1.07,5.21-2.93,7.069C75.21,348.93,72.63,350,70,350z"/></g><g><path d="M310,420c-2.63,0-5.21-1.07-7.07-2.931c-1.86-1.859-2.93-4.439-2.93-7.069s1.069-5.21,2.93-7.07S307.37,400,310,400     s5.21,1.069,7.069,2.93c1.86,1.86,2.931,4.44,2.931,7.07s-1.07,5.21-2.931,7.069C315.21,418.93,312.63,420,310,420z"/></g><g><path d="M440,120c-2.63,0-5.21-1.07-7.07-2.93S430,112.63,430,110c0-2.63,1.069-5.21,2.93-7.07c1.86-1.86,4.44-2.93,7.07-2.93     s5.21,1.07,7.069,2.93c1.86,1.86,2.931,4.44,2.931,7.07c0,2.63-1.07,5.21-2.931,7.07C445.21,118.93,442.63,120,440,120z"/></g><g><path d="M100,140c-2.63,0-5.21-1.07-7.07-2.93C91.07,135.21,90,132.63,90,130c0-2.63,1.07-5.21,2.93-7.07     c1.86-1.86,4.44-2.93,7.07-2.93c2.63,0,5.21,1.07,7.07,2.93c1.86,1.86,2.93,4.44,2.93,7.07c0,2.63-1.07,5.21-2.93,7.07     S102.63,140,100,140z"/></g></g></g><text x="0" y="527" fill="#000000" font-size="5px" font-weight="bold" font-family="'Helvetica Neue', Helvetica, Arial-Unicode, Arial, Sans-serif">Created by Flatart</text><text x="0" y="532" fill="#000000" font-size="5px" font-weight="bold" font-family="'Helvetica Neue', Helvetica, Arial-Unicode, Arial, Sans-serif">from the Noun Project</text></svg>