<svg xmlns="http://www.w3.org/2000/svg" xmlns:xlink="http://www.w3.org/1999/xlink" version="1.1" x="0px" y="0px" viewBox="0 0 512 640" style="enable-background:new 0 0 512 512;" xml:space="preserve"><g><path d="M406,246c-10.91,0-21.372,1.953-31.058,5.525c-74.236-148.428-69.969-140.051-70.515-140.907   C299.994,96.372,286.686,86,271,86h-30c-5.523,0-10,4.477-10,10s4.477,10,10,10h30c8.271,0,15,6.729,15,15s-6.729,15-15,15h-30   c-5.523,0-10,4.477-10,10s4.477,10,10,10h30c11.014,0,20.851-5.119,27.271-13.097L319.819,186c-9.837,0-184.482,0-193.819,0   c-8.271,0-15-6.729-15-15s6.729-15,15-15h30c5.523,0,10-4.477,10-10s-4.477-10-10-10h-30c-19.299,0-35,15.701-35,35   s15.701,35,35,35h15.81l-15.143,42.398C70.02,235.037,16,278.277,16,336c0,49.626,40.374,90,90,90   c46.246,0,84.451-35.063,89.441-80h31.824c4.452,17.232,20.13,30,38.734,30c22.056,0,40-17.944,40-40   c0-12.359-5.681-23.756-15.032-31.229l44.879-86.718l21.223,42.445C332.369,276.563,316,304.404,316,336c0,49.626,40.374,90,90,90   s90-40.374,90-90S455.626,246,406,246z M159.466,216.028l76.539,93.548c-4.273,4.851-7.211,10.508-8.739,16.424h-31.824   c-3.462-31.177-22.912-57.598-49.945-70.856L159.466,216.028z M138.712,274.14c19.348,10.272,33.327,29.351,36.563,51.86H120.19   L138.712,274.14z M106,406c-38.598,0-70-31.402-70-70c0-44.143,40.549-77.368,83.886-68.612l-23.303,65.249   C94.256,339.15,99.097,346,106,346h69.274C170.406,379.876,141.202,406,106,406z M266,356c-11.028,0-20-8.972-20-20s8.972-20,20-20   c11.05,0,20,8.95,20,20C286,347.028,277.027,356,266,356z M272.699,296.559c-6.556-1.119-13.573-0.563-20.077,1.744L177.103,206   h142.462L272.699,296.559z M406,406c-38.599,0-70-31.402-70-70c0-23.772,11.922-44.802,30.09-57.46l30.966,61.932   c1.752,3.505,5.283,5.53,8.952,5.53c7.349,0,12.282-7.782,8.937-14.474l-30.978-61.955C429.18,254.536,476,288.349,476,336   C476,374.598,444.598,406,406,406z"/></g><text x="0" y="527" fill="#000000" font-size="5px" font-weight="bold" font-family="'Helvetica Neue', Helvetica, Arial-Unicode, Arial, Sans-serif">Created by Flatart</text><text x="0" y="532" fill="#000000" font-size="5px" font-weight="bold" font-family="'Helvetica Neue', Helvetica, Arial-Unicode, Arial, Sans-serif">from the Noun Project</text></svg>