<svg xmlns="http://www.w3.org/2000/svg" xmlns:xlink="http://www.w3.org/1999/xlink" version="1.1" x="0px" y="0px" viewBox="0 0 512 640" style="enable-background:new 0 0 512 512;" xml:space="preserve"><g><g><g><path d="M255,280c-16.542,0-30-13.458-30-30s13.458-30,30-30s30,13.458,30,30S271.542,280,255,280z M255,240     c-5.514,0-10,4.486-10,10s4.486,10,10,10c5.514,0,10-4.486,10-10S260.514,240,255,240z"/></g><g><path d="M253.397,210c-2.36,0-4.719-0.832-6.608-2.495c-21.697-19.102-44.132-38.854-56.506-59.206     c-6.774-11.141-10.067-21.547-10.067-31.812c0-4.715,0.951-9.328,2.825-13.709c6.262-14.642,21.479-24.104,38.766-24.104     c15.091,0,24.635,5.621,31.592,13.392c6.965-7.771,16.53-13.392,31.669-13.392c18.817,0,35.343,11.531,40.187,28.042     c0.932,3.177,1.404,6.465,1.404,9.771c0,9.567-2.852,19.223-8.718,29.52c-12.107,21.251-35.41,41.715-57.945,61.506     C258.108,209.171,255.752,210,253.397,210z M221.807,98.674c-9.126,0-17.315,4.81-20.377,11.969     c-0.805,1.883-1.213,3.849-1.213,5.844c0,6.495,2.341,13.502,7.156,21.421c9.638,15.851,27.639,32.485,46.034,48.765     c19.114-16.874,37.79-34.124,47.159-50.567c4.101-7.199,6.095-13.617,6.095-19.619c0-1.401-0.2-2.794-0.596-4.142     c-2.324-7.921-11.154-13.671-20.995-13.671c-10.863,0-16.017,3.543-22.976,15.798c-1.776,3.129-5.098,5.062-8.696,5.062     c-3.598,0-6.918-1.933-8.695-5.062C237.742,102.218,232.606,98.674,221.807,98.674z"/></g><g><path d="M20.007,140.428c-3.756,0-7.354-2.125-9.058-5.75c-2.349-4.999-0.201-10.955,4.798-13.304l235-110.426     c2.578-1.212,5.547-1.265,8.169-0.151l235,100c5.081,2.163,7.448,8.035,5.285,13.117c-2.161,5.081-8.032,7.448-13.117,5.286     L255.202,30.954L24.253,139.477C22.878,140.122,21.431,140.428,20.007,140.428z"/></g><g><path d="M420,360H90c-5.523,0-10-4.478-10-10V100c0-3.832,2.189-7.327,5.637-8.998l165-80c2.597-1.259,5.612-1.335,8.268-0.208     l165,70C427.601,82.362,430,85.986,430,90v260C430,355.522,425.522,360,420,360z M100,340h310V96.62L255.276,30.979L100,106.265     V340z"/></g><g><path d="M420,360H90c-5.523,0-10-4.478-10-10v-50c0-5.522,4.477-10,10-10h330c5.522,0,10,4.478,10,10v50     C430,355.522,425.522,360,420,360z M100,340h310v-30H100V340z"/></g><g><path d="M255,500c-19.299,0-35-15.701-35-35V350c0-5.522,4.477-10,10-10h50c5.522,0,10,4.478,10,10v115     C290,484.299,274.299,500,255,500z M240,360v105c0,8.271,6.729,15,15,15c8.271,0,15-6.729,15-15V360H240z"/></g></g></g><text x="0" y="527" fill="#000000" font-size="5px" font-weight="bold" font-family="'Helvetica Neue', Helvetica, Arial-Unicode, Arial, Sans-serif">Created by Flatart</text><text x="0" y="532" fill="#000000" font-size="5px" font-weight="bold" font-family="'Helvetica Neue', Helvetica, Arial-Unicode, Arial, Sans-serif">from the Noun Project</text></svg>