<svg xmlns="http://www.w3.org/2000/svg" xmlns:xlink="http://www.w3.org/1999/xlink" version="1.1" x="0px" y="0px" viewBox="0 0 512 640" style="enable-background:new 0 0 512 512;" xml:space="preserve"><g><g><g><path d="M223.562,104.422c-2.996,0-5.877-1.349-7.796-3.739c-2.339-2.913-2.86-6.886-1.35-10.303l32.438-73.417     c1.6-3.622,5.187-5.958,9.147-5.958s7.547,2.336,9.146,5.958l32.438,73.415c1.51,3.417,0.989,7.39-1.349,10.303     c-2.341,2.913-6.108,4.277-9.769,3.543c-19.984-4.018-40.948-4.018-60.933,0.001     C224.877,104.357,224.216,104.422,223.562,104.422z M256,45.749l-15.986,36.182c10.629-0.975,21.343-0.976,31.973,0L256,45.749z"/></g><g><path d="M364.868,142.461c-2.397,0-4.761-0.862-6.619-2.502c-15.55-13.724-33.304-24.029-52.77-30.63     c-3.535-1.198-6.108-4.266-6.674-7.955c-0.565-3.689,0.971-7.387,3.983-9.589l64.816-47.376     c3.197-2.336,7.472-2.566,10.901-0.587c3.43,1.98,5.367,5.797,4.942,9.734l-8.641,79.979c-0.401,3.716-2.842,6.897-6.326,8.249     C367.31,142.239,366.084,142.461,364.868,142.461z M329.162,97.281c9.706,4.491,18.961,9.863,27.709,16.084l4.263-39.453     L329.162,97.281z"/></g><g><path d="M412.147,213.326c-0.503,0-1.01-0.038-1.517-0.116c-3.689-0.565-6.757-3.139-7.955-6.674     c-6.601-19.471-16.907-37.23-30.634-52.785c-2.473-2.802-3.177-6.75-1.824-10.234c1.352-3.484,4.534-5.924,8.25-6.325     l79.979-8.624c3.944-0.42,7.754,1.514,9.732,4.943c1.979,3.429,1.75,7.704-0.587,10.9l-47.372,64.815     C418.32,211.826,415.308,213.326,412.147,213.326z M398.638,155.134c6.223,8.752,11.596,18.009,16.087,27.718l23.368-31.973     L398.638,155.134z"/></g><g><path d="M417.582,298.437c-2.238,0-4.454-0.751-6.262-2.202c-2.913-2.339-4.279-6.105-3.543-9.768     c2.008-9.992,3.025-20.243,3.025-30.467c0-10.221-1.019-20.472-3.026-30.468c-0.736-3.662,0.63-7.429,3.543-9.767     c2.913-2.34,6.887-2.86,10.302-1.35l73.415,32.438c3.622,1.601,5.959,5.187,5.959,9.147s-2.337,7.547-5.959,9.147l-73.414,32.436     C420.326,298.156,418.95,298.437,417.582,298.437z M430.069,240.013c0.488,5.315,0.733,10.655,0.733,15.987     c0,5.332-0.245,10.672-0.732,15.986L466.251,256L430.069,240.013z"/></g><g><path d="M459.521,383.507c-0.357,0-0.717-0.019-1.077-0.058l-79.973-8.64c-3.716-0.401-6.897-2.842-8.249-6.325     c-1.352-3.484-0.647-7.432,1.825-10.234c13.726-15.553,24.031-33.312,30.63-52.782c1.198-3.535,4.266-6.108,7.955-6.675     c3.684-0.563,7.388,0.97,9.59,3.985l47.37,64.829c2.336,3.196,2.565,7.472,0.586,10.9     C466.38,381.623,463.064,383.507,459.521,383.507z M398.641,356.872l39.452,4.262l-23.367-31.979     C410.235,338.864,404.863,348.12,398.641,356.872z"/></g><g><path d="M373.508,469.519c-2.079,0-4.151-0.647-5.9-1.926l-64.829-47.37c-3.015-2.202-4.551-5.9-3.985-9.59     c0.566-3.689,3.14-6.757,6.675-7.955c19.471-6.599,37.229-16.904,52.782-30.63c2.803-2.473,6.748-3.178,10.234-1.825     c3.483,1.352,5.924,4.533,6.325,8.249l8.64,79.973c0.425,3.937-1.513,7.754-4.941,9.734     C376.955,469.075,375.229,469.519,373.508,469.519z M329.155,414.726l31.979,23.367l-4.262-39.452     C348.12,404.863,338.864,410.235,329.155,414.726z"/></g><g><path d="M256,500.995c-3.96,0-7.546-2.337-9.147-5.959l-32.438-73.415c-1.51-3.416-0.989-7.39,1.35-10.302     c2.338-2.913,6.106-4.278,9.767-3.543c19.995,4.017,40.953,4.016,60.935,0.001c3.661-0.736,7.429,0.63,9.768,3.543     c2.338,2.912,2.858,6.886,1.349,10.302l-32.436,73.414C263.547,498.658,259.96,500.995,256,500.995z M240.013,430.069     L256,466.251l15.986-36.181C261.358,431.045,250.645,431.046,240.013,430.069z"/></g><g><path d="M138.51,469.519c-1.721,0-3.446-0.443-4.999-1.34c-3.429-1.979-5.367-5.796-4.943-9.732l8.624-79.979     c0.401-3.716,2.84-6.898,6.325-8.25c3.485-1.354,7.432-0.648,10.234,1.824c15.554,13.727,33.313,24.033,52.785,30.634     c3.535,1.198,6.108,4.266,6.674,7.955c0.566,3.689-0.97,7.387-3.983,9.589l-64.815,47.372     C142.663,468.87,140.59,469.519,138.51,469.519z M155.134,398.638l-4.254,39.455l31.973-23.368     C173.143,410.233,163.886,404.86,155.134,398.638z"/></g><g><path d="M52.479,383.507c-3.543,0-6.858-1.884-8.657-5c-1.98-3.43-1.75-7.704,0.587-10.901l47.376-64.816     c2.202-3.013,5.9-4.548,9.589-3.983c3.689,0.565,6.756,3.139,7.955,6.674c6.601,19.466,16.906,37.22,30.63,52.77     c2.473,2.802,3.177,6.749,1.826,10.233s-4.533,5.925-8.249,6.326l-79.979,8.641C53.196,383.488,52.836,383.507,52.479,383.507z      M97.281,329.162l-23.369,31.972l39.453-4.263C107.144,348.123,101.772,338.868,97.281,329.162z"/></g><g><path d="M94.418,298.438c-1.368,0-2.744-0.28-4.04-0.854l-73.415-32.438c-3.622-1.6-5.958-5.187-5.958-9.146     s2.336-7.547,5.958-9.147l73.417-32.438c3.417-1.51,7.391-0.989,10.303,1.35c2.913,2.339,4.279,6.106,3.542,9.768     c-2.009,9.993-3.028,20.243-3.028,30.466s1.018,20.475,3.027,30.467c0.736,3.662-0.63,7.43-3.543,9.769     C98.873,297.687,96.657,298.438,94.418,298.438z M45.749,256l36.182,15.986c-0.487-5.314-0.733-10.654-0.733-15.986     c0-5.333,0.246-10.671,0.733-15.986L45.749,256z"/></g><g><path d="M99.858,213.313c-3.16,0-6.171-1.5-8.071-4.099l-47.378-64.802c-2.337-3.196-2.568-7.471-0.588-10.9     c1.98-3.43,5.797-5.363,9.733-4.944l79.985,8.625c3.716,0.401,6.898,2.84,8.25,6.325c1.352,3.485,0.648,7.433-1.825,10.235     c-13.726,15.553-24.033,33.308-30.634,52.772c-1.199,3.534-4.266,6.107-7.955,6.672     C100.869,213.275,100.361,213.313,99.858,213.313z M73.913,150.88l23.37,31.964c4.491-9.705,9.864-18.961,16.085-27.71     L73.913,150.88z"/></g><g><path d="M147.134,142.467c-1.217,0-2.442-0.222-3.616-0.677c-3.484-1.352-5.924-4.535-6.325-8.25l-8.625-79.985     c-0.424-3.937,1.514-7.754,4.944-9.733c3.428-1.979,7.704-1.749,10.9,0.588l64.802,47.378c3.013,2.203,4.548,5.9,3.982,9.588     c-0.565,3.689-3.138,6.756-6.672,7.955c-19.464,6.601-37.219,16.908-52.772,30.634     C151.894,141.605,149.531,142.467,147.134,142.467z M150.88,73.913l4.254,39.456c8.749-6.222,18.005-11.595,27.71-16.085     L150.88,73.913z"/></g><g><path d="M256,430.803c-11.541,0-23.117-1.15-34.407-3.419c-7.28-1.463-14.505-3.403-21.477-5.767     c-21.994-7.456-42.046-19.09-59.597-34.579c-5.482-4.838-10.716-10.071-15.555-15.555     c-15.486-17.547-27.119-37.593-34.575-59.582c-2.366-6.976-4.308-14.207-5.772-21.493c-2.269-11.288-3.419-22.864-3.419-34.408     c0-11.544,1.151-23.121,3.42-34.409c1.464-7.284,3.406-14.515,5.772-21.49c7.457-21.986,19.091-42.033,34.58-59.583     c4.837-5.48,10.069-10.712,15.549-15.549c17.55-15.489,37.597-27.124,59.583-34.58c6.976-2.366,14.207-4.308,21.491-5.772     c22.574-4.539,46.239-4.539,68.816-0.001c7.286,1.464,14.518,3.406,21.493,5.772c21.989,7.456,42.035,19.089,59.582,34.575     c5.483,4.839,10.717,10.073,15.555,15.555c15.489,17.551,27.123,37.603,34.579,59.597c2.363,6.972,4.304,14.197,5.767,21.476     c2.269,11.291,3.419,22.867,3.419,34.408c0,11.544-1.149,23.12-3.418,34.406c-1.464,7.285-3.403,14.513-5.766,21.481     c-7.454,21.994-19.087,42.045-34.575,59.597c-4.84,5.484-10.075,10.72-15.56,15.56c-17.552,15.488-37.603,27.121-59.597,34.575     c-6.969,2.362-14.196,4.302-21.481,5.766C279.12,429.653,267.544,430.803,256,430.803z M256,101.197     c-10.224,0-20.474,1.019-30.466,3.028c-6.447,1.296-12.842,3.014-19.009,5.105c-19.464,6.601-37.22,16.908-52.772,30.634     c-4.86,4.29-9.499,8.929-13.789,13.789c-13.726,15.552-24.033,33.307-30.634,52.771c-2.091,6.167-3.809,12.562-5.105,19.008     c-2.009,9.993-3.028,20.243-3.028,30.467s1.019,20.475,3.026,30.467c1.296,6.449,3.014,12.846,5.105,19.012     c6.601,19.467,16.906,37.222,30.63,52.771c4.292,4.862,8.932,9.503,13.793,13.793c15.554,13.727,33.313,24.033,52.785,30.634     c6.164,2.09,12.555,3.806,18.997,5.101c19.993,4.017,40.952,4.016,60.934,0.001c6.447-1.296,12.841-3.012,19.001-5.1     c19.471-6.6,37.229-16.904,52.782-30.63c4.864-4.292,9.506-8.934,13.798-13.798c13.726-15.553,24.03-33.312,30.63-52.782     c2.088-6.16,3.804-12.554,5.1-19.001c2.008-9.992,3.025-20.243,3.025-30.467c0-10.221-1.019-20.472-3.026-30.468     c-1.295-6.441-3.011-12.832-5.101-18.996c-6.601-19.471-16.907-37.23-30.634-52.785c-4.29-4.861-8.931-9.502-13.793-13.793     c-15.549-13.724-33.304-24.029-52.77-30.63c-6.167-2.091-12.563-3.809-19.013-5.105C276.475,102.216,266.224,101.197,256,101.197     z"/></g><g><path d="M256,380.803c-68.816,0-124.803-55.986-124.803-124.803S187.184,131.197,256,131.197S380.803,187.184,380.803,256     S324.816,380.803,256,380.803z M256,151.197c-57.789,0-104.803,47.014-104.803,104.803c0,57.788,47.014,104.803,104.803,104.803     c57.788,0,104.803-47.015,104.803-104.803C360.803,198.211,313.788,151.197,256,151.197z"/></g><g><path d="M330.803,266c-5.522,0-10-4.478-10-10c0-35.732-29.07-64.803-64.803-64.803c-5.523,0-10-4.477-10-10s4.477-10,10-10     c46.761,0,84.803,38.042,84.803,84.803C340.803,261.522,336.325,266,330.803,266z"/></g></g></g><text x="0" y="527" fill="#000000" font-size="5px" font-weight="bold" font-family="'Helvetica Neue', Helvetica, Arial-Unicode, Arial, Sans-serif">Created by Flatart</text><text x="0" y="532" fill="#000000" font-size="5px" font-weight="bold" font-family="'Helvetica Neue', Helvetica, Arial-Unicode, Arial, Sans-serif">from the Noun Project</text></svg>