<svg xmlns="http://www.w3.org/2000/svg" xmlns:xlink="http://www.w3.org/1999/xlink" version="1.1" x="0px" y="0px" viewBox="0 0 512 640" style="enable-background:new 0 0 512 512;" xml:space="preserve"><g><g><g><path d="M372.647,290.737c-5.522,0-10-4.478-10-10c0-27.772-21.903-50.366-48.826-50.366s-48.827,22.594-48.827,50.366     c0,5.522-4.477,10-10,10s-10-4.478-10-10c0-27.772-21.904-50.366-48.827-50.366c-26.923,0-48.827,22.594-48.827,50.366     c0,5.522-4.477,10-10,10s-10-4.478-10-10c0-27.772-21.903-50.366-48.827-50.366c-19.469,0-37.059,11.914-44.812,30.352     c-1.983,4.717-7.208,7.177-12.104,5.698c-4.898-1.477-7.892-6.412-6.938-11.439c11.077-58.379,40.77-111.378,83.608-149.235     c21.524-19.021,45.768-33.842,72.058-44.052c27.265-10.588,56.111-15.957,85.739-15.957c29.658,0,58.453,5.383,85.586,15.999     c26.147,10.231,50.212,25.093,71.526,44.172c42.116,37.702,71.295,90.542,82.208,148.844c0.202,0.792,0.31,1.622,0.31,2.477     c0,5.32-4.156,9.671-9.398,9.982c-4.172,0.246-8.207-2.143-9.866-6.17c-7.685-18.632-25.331-30.671-44.955-30.671     c-26.924,0-48.827,22.594-48.827,50.366C382.647,286.26,378.17,290.737,372.647,290.737z M313.821,210.371     c24.892,0,46.737,13.577,58.826,33.87c12.089-20.293,33.936-33.87,58.827-33.87c12.13,0,23.714,3.227,33.813,9.042     C432.745,127.193,351.367,65.737,256.064,65.737c-95.887,0-177.985,61.394-211.032,153.508c10.031-5.708,21.5-8.874,33.483-8.874     c24.892,0,46.738,13.577,58.827,33.87c12.089-20.293,33.935-33.87,58.827-33.87s46.738,13.577,58.827,33.87     C267.083,223.948,288.93,210.371,313.821,210.371z"/></g><g><path d="M375.662,267.23c-5.09,0-9.442-3.869-9.942-9.04c-5.311-54.989-19.546-104.633-40.082-139.786     c-14.037-24.026-37.583-52.667-70.043-52.667c-53.365,0-100.114,80.788-111.159,192.097c-0.545,5.496-5.443,9.52-10.938,8.963     c-5.496-0.545-9.509-5.442-8.964-10.938c5.719-57.63,21.13-110.089,43.395-147.712c11.473-19.387,24.513-34.581,38.758-45.159     c15.414-11.447,31.869-17.25,48.908-17.25c33.203,0,63.395,21.639,87.312,62.578c21.966,37.599,37.138,90.143,42.722,147.953     c0.53,5.498-3.495,10.384-8.993,10.916C376.309,267.215,375.983,267.23,375.662,267.23z"/></g><g><path d="M232.497,500C214.578,500,200,485.422,200,467.503V460c0-5.522,4.477-10,10-10s10,4.478,10,10v7.503     c0,6.891,5.606,12.497,12.497,12.497s12.498-5.606,12.498-12.497V260c0-5.523,4.477-10,10-10s10,4.477,10,10v207.503     C264.995,485.422,250.417,500,232.497,500z"/></g><g><path d="M255.594,65.737c-5.523,0-10-4.477-10-10V20c0-5.523,4.477-10,10-10s10,4.477,10,10v35.737     C265.594,61.26,261.117,65.737,255.594,65.737z"/></g><g><path d="M120,370c-5.523,0-10-4.478-10-10v-50c0-5.522,4.477-10,10-10s10,4.478,10,10v50C130,365.522,125.523,370,120,370z"/></g><g><path d="M160,390c-5.523,0-10-4.478-10-10v-50c0-5.522,4.477-10,10-10s10,4.478,10,10v50C170,385.522,165.523,390,160,390z"/></g><g><path d="M80,400c-5.523,0-10-4.478-10-10v-40c0-5.522,4.477-10,10-10s10,4.478,10,10v40C90,395.522,85.523,400,80,400z"/></g><g><path d="M50,400c-5.523,0-10-4.478-10-10v-20c0-5.522,4.477-10,10-10s10,4.478,10,10v20C60,395.522,55.523,400,50,400z"/></g><g><path d="M160,430c-5.523,0-10-4.478-10-10v-10c0-5.522,4.477-10,10-10s10,4.478,10,10v10C170,425.522,165.523,430,160,430z"/></g><g><path d="M120,400c-2.63,0-5.21-1.07-7.07-2.931C111.07,395.21,110,392.63,110,390s1.07-5.21,2.93-7.07     c1.86-1.86,4.44-2.93,7.07-2.93c2.63,0,5.21,1.069,7.07,2.93S130,387.37,130,390s-1.07,5.21-2.93,7.069     C125.21,398.93,122.63,400,120,400z"/></g><g><path d="M120,430c-2.63,0-5.21-1.07-7.07-2.931C111.07,425.21,110,422.63,110,420s1.07-5.21,2.93-7.07     c1.86-1.86,4.44-2.93,7.07-2.93c2.63,0,5.21,1.069,7.07,2.93S130,417.37,130,420s-1.07,5.21-2.93,7.069     C125.21,428.93,122.63,430,120,430z"/></g><g><path d="M50,430c-2.63,0-5.21-1.07-7.07-2.931C41.07,425.21,40,422.63,40,420s1.07-5.21,2.93-7.07c1.86-1.86,4.44-2.93,7.07-2.93     c2.63,0,5.21,1.069,7.07,2.93S60,417.37,60,420s-1.07,5.21-2.93,7.069C55.21,428.93,52.63,430,50,430z"/></g><g><path d="M420,370c-5.522,0-10-4.478-10-10v-50c0-5.522,4.478-10,10-10s10,4.478,10,10v50C430,365.522,425.522,370,420,370z"/></g><g><path d="M460,390c-5.522,0-10-4.478-10-10v-50c0-5.522,4.478-10,10-10s10,4.478,10,10v50C470,385.522,465.522,390,460,390z"/></g><g><path d="M380,400c-5.522,0-10-4.478-10-10v-40c0-5.522,4.478-10,10-10s10,4.478,10,10v40C390,395.522,385.522,400,380,400z"/></g><g><path d="M350,400c-5.522,0-10-4.478-10-10v-20c0-5.522,4.478-10,10-10s10,4.478,10,10v20C360,395.522,355.522,400,350,400z"/></g><g><path d="M460,430c-5.522,0-10-4.478-10-10v-10c0-5.522,4.478-10,10-10s10,4.478,10,10v10C470,425.522,465.522,430,460,430z"/></g><g><path d="M420,400c-2.63,0-5.21-1.07-7.07-2.931c-1.86-1.859-2.93-4.439-2.93-7.069s1.069-5.21,2.93-7.07S417.37,380,420,380     s5.21,1.069,7.069,2.93c1.86,1.86,2.931,4.44,2.931,7.07s-1.07,5.21-2.931,7.069C425.21,398.93,422.63,400,420,400z"/></g><g><path d="M420,430c-2.63,0-5.21-1.07-7.07-2.931c-1.86-1.859-2.93-4.439-2.93-7.069s1.069-5.21,2.93-7.07S417.37,410,420,410     s5.21,1.069,7.069,2.93c1.86,1.86,2.931,4.44,2.931,7.07s-1.07,5.21-2.931,7.069C425.21,428.93,422.63,430,420,430z"/></g><g><path d="M350,430c-2.63,0-5.21-1.07-7.07-2.931c-1.86-1.859-2.93-4.439-2.93-7.069s1.069-5.21,2.93-7.07S347.37,410,350,410     s5.21,1.069,7.069,2.93c1.86,1.86,2.931,4.44,2.931,7.07s-1.07,5.21-2.931,7.069C355.21,428.93,352.63,430,350,430z"/></g></g></g><text x="0" y="527" fill="#000000" font-size="5px" font-weight="bold" font-family="'Helvetica Neue', Helvetica, Arial-Unicode, Arial, Sans-serif">Created by Flatart</text><text x="0" y="532" fill="#000000" font-size="5px" font-weight="bold" font-family="'Helvetica Neue', Helvetica, Arial-Unicode, Arial, Sans-serif">from the Noun Project</text></svg>