<svg xmlns="http://www.w3.org/2000/svg" xmlns:xlink="http://www.w3.org/1999/xlink" version="1.1" x="0px" y="0px" viewBox="0 0 512 640" style="enable-background:new 0 0 512 512;" xml:space="preserve"><g><g><g><path d="M268.728,416.695H178.75C118.785,416.695,70,367.91,70,307.945v-26.25c0-24.813,20.187-45,45-45     c18.705,0,35.657,11.774,42.182,29.298c3.062,8.224,8.609,15.845,16.043,22.039l17.41,14.509     c1.805,1.504,3.022,3.596,3.439,5.907c6.746,37.393,36.836,71.506,78.526,89.028c4.39,1.845,6.869,6.528,5.929,11.195     S273.488,416.695,268.728,416.695z M115,256.695c-13.785,0-25,11.215-25,25v26.25c0,48.937,39.813,88.75,88.75,88.75h51.951     c-28.694-20.895-48.87-49.803-55.588-81.056l-14.69-12.242c-10.106-8.422-17.708-18.942-21.983-30.426     C134.814,263.236,125.395,256.695,115,256.695z"/></g><g><path d="M334.249,430c-0.002,0-0.003,0-0.005,0c-14.414-0.001-28.97-1.814-43.265-5.391c-8.916-2.231-17.706-5.156-26.126-8.695     c-47.863-20.115-82.526-59.934-90.461-103.915c-2.741-15.196-2.266-30.356,1.414-45.061     c6.721-26.861,23.375-49.722,48.163-66.109c23.883-15.789,53.077-24.135,84.427-24.135c14.412,0,28.969,1.814,43.265,5.391     c38.517,9.638,71.71,31.105,93.465,60.45c22.194,29.938,29.904,64.465,21.709,97.221c-6.722,26.862-23.376,49.723-48.164,66.11     C394.789,421.654,365.596,430,334.249,430z M308.396,196.695c-56.462,0-101.949,30.18-113.188,75.098     c-2.986,11.936-3.368,24.269-1.133,36.655c6.746,37.393,36.836,71.507,78.527,89.028c7.484,3.145,15.301,5.746,23.232,7.73     c12.708,3.18,25.631,4.792,38.41,4.793c56.462,0.002,101.948-30.178,113.188-75.099     c14.054-56.165-31.088-116.015-100.627-133.414C334.097,198.308,321.174,196.695,308.396,196.695z"/></g><g><path d="M129.988,256.696c-5.012,0-9.336-3.759-9.922-8.858c-4.86-42.245,22.026-67.458,23.173-68.511     c4.069-3.734,10.395-3.463,14.129,0.606c3.724,4.057,3.465,10.358-0.57,14.097c-0.928,0.873-20.517,19.763-16.863,51.522     c0.631,5.487-3.305,10.446-8.792,11.078C130.755,256.674,130.369,256.696,129.988,256.696z"/></g><g><path d="M165,206.695c-13.785,0-25-11.215-25-25s11.215-25,25-25s25,11.215,25,25S178.785,206.695,165,206.695z M165,176.695     c-2.757,0-5,2.243-5,5s2.243,5,5,5s5-2.243,5-5S167.757,176.695,165,176.695z"/></g><g><path d="M99.496,256.696c-0.382,0-0.767-0.022-1.156-0.066c-5.486-0.631-9.423-5.591-8.792-11.078     c3.708-32.23-16.622-51.301-16.827-51.489c-4.069-3.735-4.34-10.061-0.605-14.129c3.734-4.069,10.06-4.34,14.129-0.606     c1.147,1.053,28.033,26.266,23.173,68.511C108.831,252.937,104.506,256.696,99.496,256.696z"/></g><g><path d="M64.483,206.695c-13.785,0-25-11.215-25-25s11.215-25,25-25s25,11.215,25,25S78.268,206.695,64.483,206.695z      M64.483,176.695c-2.757,0-5,2.243-5,5s2.243,5,5,5s5-2.243,5-5S67.24,176.695,64.483,176.695z"/></g><g><path d="M130,306.7c-2.63,0-5.21-1.07-7.07-2.931c-1.86-1.859-2.93-4.439-2.93-7.069c0-2.641,1.07-5.221,2.93-7.08     c1.86-1.86,4.44-2.92,7.07-2.92c2.63,0,5.21,1.06,7.07,2.92c1.86,1.87,2.93,4.439,2.93,7.08c0,2.63-1.07,5.199-2.93,7.069     C135.21,305.63,132.63,306.7,130,306.7z"/></g><g><path d="M110,306.7c-2.63,0-5.21-1.07-7.07-2.931c-1.86-1.87-2.93-4.439-2.93-7.069c0-2.641,1.07-5.221,2.93-7.08     c1.86-1.86,4.44-2.92,7.07-2.92c2.63,0,5.21,1.06,7.07,2.92c1.86,1.859,2.93,4.439,2.93,7.08c0,2.63-1.07,5.199-2.93,7.069     C115.21,305.63,112.63,306.7,110,306.7z"/></g><g><g><path d="M260.543,416.695c-2.56,0-5.118-0.977-7.071-2.929c-19.091-19.092-30.532-47.39-31.39-77.64      c-0.862-30.417,9.082-58.302,27.283-76.503c39.062-39.06,102.617-39.059,141.677,0c32.938,32.938,34.414,85.055,3.292,116.177      c-31.123,31.122-83.238,29.645-116.177-3.293c-25.676-25.677-26.782-66.349-2.466-90.665      c24.316-24.315,64.987-23.209,90.665,2.467c18.421,18.422,19.162,47.654,1.651,65.165c-17.51,17.51-46.743,16.771-65.165-1.651      c-11.153-11.155-11.519-28.938-0.814-39.643c5.27-5.27,12.362-8.042,19.973-7.795c7.368,0.235,14.354,3.293,19.67,8.609      c3.905,3.905,3.905,10.237,0,14.143c-3.906,3.904-10.236,3.904-14.143,0c-1.708-1.709-3.898-2.689-6.167-2.763      c-1.173-0.031-3.409,0.166-5.19,1.947c-2.907,2.907-2.541,8.003,0.814,11.359c10.622,10.622,27.168,11.362,36.88,1.65      c9.713-9.713,8.972-26.257-1.651-36.88c-17.878-17.881-45.864-18.986-62.38-2.467c-16.519,16.519-15.412,44.502,2.466,62.38      c25.141,25.14,64.568,26.617,87.892,3.293c23.324-23.324,21.848-62.752-3.292-87.892c-31.263-31.265-82.131-31.263-113.392,0      c-30.153,30.153-28.081,93.67,4.106,125.857c3.905,3.905,3.905,10.237,0,14.143      C265.661,415.719,263.102,416.695,260.543,416.695z"/></g></g></g></g><text x="0" y="527" fill="#000000" font-size="5px" font-weight="bold" font-family="'Helvetica Neue', Helvetica, Arial-Unicode, Arial, Sans-serif">Created by Flatart</text><text x="0" y="532" fill="#000000" font-size="5px" font-weight="bold" font-family="'Helvetica Neue', Helvetica, Arial-Unicode, Arial, Sans-serif">from the Noun Project</text></svg>