<svg xmlns="http://www.w3.org/2000/svg" xmlns:xlink="http://www.w3.org/1999/xlink" version="1.1" x="0px" y="0px" viewBox="0 0 512 640" style="enable-background:new 0 0 512 512;" xml:space="preserve"><g><g><g><path d="M450,350h-45c-68.925,0-125-56.075-125-125c0-8.271-6.729-15-15-15c-8.271,0-15,6.729-15,15c0,68.925-56.075,125-125,125     H70c-27.57,0-50-22.43-50-50s22.43-50,50-50h55c13.785,0,25-11.215,25-25c0-63.411,51.589-115,115-115s115,51.589,115,115     c0,13.785,11.215,25,25,25h45c27.57,0,50,22.43,50,50S477.57,350,450,350z M265,190c19.299,0,35,15.701,35,35     c0,57.897,47.103,105,105,105h45c16.542,0,30-13.458,30-30s-13.458-30-30-30h-45c-24.813,0-45-20.187-45-45     c0-52.383-42.617-95-95-95c-52.383,0-95,42.617-95,95c0,24.813-20.187,45-45,45H70c-16.542,0-30,13.458-30,30s13.458,30,30,30h55     c57.897,0,105-47.103,105-105C230,205.701,245.701,190,265,190z"/></g><g><path d="M90,350c-5.523,0-10-4.478-10-10v-80c0-5.523,4.477-10,10-10s10,4.477,10,10v80C100,345.522,95.523,350,90,350z"/></g><g><path d="M170.009,340.002c-3.472,0-6.846-1.811-8.692-5.041l-40-70c-2.74-4.795-1.074-10.903,3.721-13.644     c4.795-2.738,10.904-1.073,13.644,3.721l40,70c2.74,4.795,1.074,10.903-3.721,13.644     C173.396,339.577,171.691,340.002,170.009,340.002z"/></g><g><path d="M260,210c-5.523,0-10-4.477-10-10v-70c0-5.523,4.477-10,10-10c5.522,0,10,4.477,10,10v70     C270,205.523,265.522,210,260,210z"/></g><g><path d="M289.991,220.001c-1.906,0-3.833-0.544-5.538-1.681c-4.596-3.063-5.837-9.272-2.773-13.867l40-60     c3.063-4.597,9.271-5.838,13.867-2.773c4.596,3.063,5.837,9.272,2.773,13.867l-40,60     C296.394,218.438,293.222,220.001,289.991,220.001z"/></g><g><path d="M300.009,270.002c-3.472,0-6.846-1.811-8.691-5.041c-2.74-4.795-1.074-10.903,3.722-13.644l70-40     c4.792-2.739,10.903-1.074,13.644,3.721s1.074,10.904-3.722,13.644l-70,40C303.396,269.577,301.691,270.002,300.009,270.002z"/></g><g><path d="M330.006,320c-2.866,0-5.71-1.225-7.688-3.599c-3.535-4.242-2.962-10.548,1.281-14.084l60-50     c4.243-3.537,10.547-2.962,14.084,1.28c3.535,4.243,2.962,10.548-1.281,14.084l-60,50C334.532,319.24,332.263,320,330.006,320z"/></g><g><path d="M220,300c-2.559,0-5.119-0.977-7.071-2.929l-60-60c-3.905-3.905-3.905-10.237,0-14.143     c3.905-3.905,10.237-3.905,14.143,0l60,60c3.905,3.905,3.905,10.237,0,14.143C225.119,299.023,222.559,300,220,300z"/></g><g><path d="M240,240c-2.559,0-5.119-0.976-7.071-2.929l-60-60c-3.905-3.905-3.905-10.237,0-14.143     c3.905-3.905,10.237-3.905,14.143,0l60,60c3.905,3.905,3.905,10.237,0,14.143C245.119,239.024,242.559,240,240,240z"/></g><g><path d="M450,310c-2.63,0-5.21-1.07-7.07-2.931c-1.86-1.859-2.93-4.439-2.93-7.069s1.069-5.21,2.93-7.07S447.37,290,450,290     s5.21,1.069,7.069,2.93c1.86,1.86,2.931,4.44,2.931,7.07s-1.07,5.21-2.931,7.069C455.21,308.93,452.63,310,450,310z"/></g></g></g><text x="0" y="527" fill="#000000" font-size="5px" font-weight="bold" font-family="'Helvetica Neue', Helvetica, Arial-Unicode, Arial, Sans-serif">Created by Flatart</text><text x="0" y="532" fill="#000000" font-size="5px" font-weight="bold" font-family="'Helvetica Neue', Helvetica, Arial-Unicode, Arial, Sans-serif">from the Noun Project</text></svg>