<svg xmlns="http://www.w3.org/2000/svg" xmlns:xlink="http://www.w3.org/1999/xlink" version="1.1" x="0px" y="0px" viewBox="0 0 512 640" style="enable-background:new 0 0 512 512;" xml:space="preserve"><g><g><g><path d="M390,400c-60.654,0-110-49.346-110-110s49.346-110,110-110s110,49.346,110,110S450.654,400,390,400z M390,200     c-49.626,0-90,40.374-90,90s40.374,90,90,90s90-40.374,90-90S439.626,200,390,200z"/></g><g><path d="M120,400c-60.654,0-110-49.346-110-110s49.346-110,110-110s110,49.346,110,110S180.654,400,120,400z M120,200     c-49.626,0-90,40.374-90,90s40.374,90,90,90s90-40.374,90-90S169.626,200,120,200z"/></g><g><path d="M420.006,270c-2.866,0-5.71-1.225-7.688-3.599l-50-60c-3.535-4.243-2.962-10.548,1.281-14.084     c4.243-3.537,10.547-2.962,14.084,1.28l50,60c3.535,4.243,2.962,10.548-1.281,14.084C424.532,269.24,422.263,270,420.006,270z"/></g><g><path d="M450.005,370c-2.818,0-5.619-1.185-7.598-3.492l-120-140c-3.594-4.193-3.108-10.506,1.085-14.101     c4.192-3.594,10.505-3.108,14.101,1.085l120,140c3.594,4.193,3.108,10.506-1.085,14.101C454.622,369.209,452.308,370,450.005,370     z"/></g><g><path d="M140.005,270c-2.865,0-5.71-1.225-7.688-3.599l-50-60c-3.536-4.243-2.962-10.548,1.28-14.084     c4.243-3.536,10.549-2.963,14.084,1.28l50,60c3.536,4.243,2.962,10.548-1.28,14.084C144.532,269.24,142.262,270,140.005,270z"/></g><g><path d="M140.006,340c-2.896,0-5.769-1.251-7.746-3.668l-90-110c-3.497-4.274-2.867-10.575,1.407-14.072     c4.275-3.496,10.575-2.866,14.072,1.407l90,110c3.497,4.274,2.867,10.574-1.407,14.071C144.474,339.26,142.233,340,140.006,340z"/></g><g><path d="M440,290c-2.63,0-5.21-1.07-7.07-2.931c-1.86-1.859-2.93-4.439-2.93-7.069s1.069-5.21,2.93-7.07S437.37,270,440,270     s5.21,1.069,7.069,2.93c1.86,1.86,2.931,4.44,2.931,7.07s-1.07,5.21-2.931,7.069C445.21,288.93,442.63,290,440,290z"/></g><g><path d="M219.987,273.146c-2.644,0-5.284-1.047-7.255-3.118c-3.807-4.001-3.626-10.353,0.375-14.16     c0.973-0.926,9.929-9.171,24.465-13.417c13.722-4.007,35.003-5.06,58.461,12.686c4.405,3.332,5.275,9.604,1.943,14.008     c-3.333,4.404-9.604,5.273-14.008,1.943c-13.267-10.035-26.748-13.281-40.064-9.644c-10.354,2.826-16.992,8.896-17.058,8.957     C224.917,272.236,222.45,273.146,219.987,273.146z"/></g><g><path d="M39.991,240.001c-1.804,0-3.629-0.488-5.273-1.511c-4.689-2.917-6.125-9.084-3.208-13.773l88.103-141.614     c0.031-0.05,0.063-0.1,0.095-0.15c9.107-14.075,23.136-23.83,39.502-27.466l68.622-15.25c5.392-1.202,10.733,2.201,11.931,7.592     c1.198,5.392-2.201,10.733-7.592,11.931l-68.622,15.25c-11.179,2.484-20.766,9.137-27.003,18.737L48.491,235.283     C46.596,238.328,43.331,240.001,39.991,240.001z"/></g><g><path d="M470.01,240.001c-3.342,0-6.605-1.673-8.501-4.719L373.454,93.747c-6.236-9.599-15.823-16.252-27.001-18.736     l-68.622-15.25c-5.392-1.198-8.791-6.54-7.593-11.931c1.198-5.391,6.544-8.792,11.931-7.592l68.622,15.25     c16.366,3.636,30.395,13.391,39.501,27.466c0.032,0.05,0.064,0.1,0.096,0.149l88.104,141.614     c2.917,4.689,1.48,10.856-3.209,13.773C473.639,239.514,471.813,240.001,470.01,240.001z"/></g><g><path d="M450,440H60c-5.523,0-10-4.478-10-10s4.477-10,10-10h390c5.522,0,10,4.478,10,10S455.522,440,450,440z"/></g><g><path d="M340,480H170c-5.523,0-10-4.478-10-10s4.477-10,10-10h170c5.522,0,10,4.478,10,10S345.522,480,340,480z"/></g></g></g><text x="0" y="527" fill="#000000" font-size="5px" font-weight="bold" font-family="'Helvetica Neue', Helvetica, Arial-Unicode, Arial, Sans-serif">Created by Flatart</text><text x="0" y="532" fill="#000000" font-size="5px" font-weight="bold" font-family="'Helvetica Neue', Helvetica, Arial-Unicode, Arial, Sans-serif">from the Noun Project</text></svg>