<svg xmlns="http://www.w3.org/2000/svg" xmlns:xlink="http://www.w3.org/1999/xlink" version="1.1" x="0px" y="0px" viewBox="0 0 512 640" style="enable-background:new 0 0 512 512;" xml:space="preserve"><g><g><g><path d="M261.394,346.009c-0.772,0-1.553-0.09-2.326-0.275l-147.631-35.295c-2.767-0.661-5.122-2.47-6.474-4.974l-19.009-35.194     c-1.731-3.206-1.582-7.1,0.39-10.164c1.972-3.063,5.463-4.811,9.089-4.565l124.696,8.504c3.072,0.209,5.876,1.822,7.602,4.372     l41.623,61.511c1.291,1.685,2.059,3.792,2.059,6.079c0,5.445-4.353,9.875-9.769,9.997     C261.561,346.007,261.477,346.009,261.394,346.009z M120.436,292.026l118.252,28.271l-24.787-36.631l-101.728-6.938     L120.436,292.026z"/></g><g><path d="M123.275,328.313c-3.556,0-6.999-1.901-8.808-5.25l-33.266-61.59c-2.625-4.859-0.813-10.926,4.046-13.551     c4.859-2.625,10.927-0.813,13.551,4.046l33.266,61.591c2.625,4.859,0.813,10.926-4.046,13.551     C126.508,327.925,124.879,328.313,123.275,328.313z"/></g><g><path d="M211.777,155.491c-3.556,0-6.999-1.901-8.808-5.25c-2.625-4.859-0.813-10.926,4.046-13.551l158.376-85.542     c4.86-2.624,10.927-0.812,13.551,4.046c2.624,4.859,0.813,10.926-4.047,13.551l-158.375,85.542     C215.01,155.104,213.381,155.491,211.777,155.491z"/></g><g><path d="M185.37,169.75c-2.63,0-5.21-1.07-7.07-2.93s-2.93-4.44-2.93-7.07c0-2.64,1.07-5.21,2.93-7.08     c1.86-1.86,4.44-2.92,7.07-2.92c2.63,0,5.21,1.06,7.07,2.92c1.87,1.87,2.93,4.44,2.93,7.08c0,2.63-1.06,5.2-2.93,7.07     C190.58,168.68,188,169.75,185.37,169.75z"/></g><g><path d="M444.934,233.564c-0.979,0-1.963-0.144-2.92-0.436c-2.848-0.87-5.159-2.963-6.307-5.711l-75.743-181.39     c-1.147-2.748-1.011-5.864,0.373-8.5c1.384-2.636,3.87-4.519,6.783-5.136C374.616,30.805,382.314,30,390,30     c60.654,0,110,49.346,110,110c0,37.11-18.528,71.471-49.564,91.915C448.784,233.002,446.868,233.564,444.934,233.564z      M383.396,50.241l65.793,157.56C468.668,190.814,480,166.246,480,140c0-49.626-40.374-90-90-90     C387.798,50,385.594,50.081,383.396,50.241z"/></g><g><path d="M300.142,403.263c-3.224,0-6.369-1.56-8.289-4.396L122.887,149.165c-1.583-2.34-2.103-5.24-1.43-7.984     c0.672-2.744,2.474-5.076,4.96-6.418L355.181,11.202c2.486-1.343,5.427-1.571,8.087-0.629c2.664,0.942,4.805,2.967,5.893,5.575     l116.174,278.214c1.979,4.741,0.045,10.211-4.476,12.652l-175.972,95.047C303.381,402.874,301.752,403.263,300.142,403.263z      M145.644,147.108l157.701,233.054l160.047-86.445L354.963,34.05L145.644,147.108z"/></g><g><path d="M60,480c-5.523,0-10-4.478-10-10v-89.723c0-21.788,6.388-42.888,18.475-61.017l3.205-4.808     c3.063-4.595,9.272-5.836,13.867-2.773c4.595,3.063,5.837,9.272,2.773,13.867l-3.205,4.808C75.227,345.188,70,362.45,70,380.277     V470C70,475.522,65.523,480,60,480z"/></g><g><path d="M100,500c-5.523,0-10-4.478-10-10v-35.797c0-5.522,4.477-10,10-10s10,4.478,10,10V490C110,495.522,105.523,500,100,500z"/></g><g><path d="M20,410c-5.523,0-10-4.478-10-10v-40c0-34.439,16.449-67.336,44-88c4.419-3.313,10.686-2.418,14,2     c3.313,4.418,2.418,10.687-2,14c-22.542,16.907-36,43.822-36,72v40C30,405.522,25.523,410,20,410z"/></g><g><path d="M320,290c-38.598,0-70-31.402-70-70c0-38.598,31.402-70,70-70s70,31.402,70,70C390,258.598,358.598,290,320,290z      M320,170c-27.57,0-50,22.43-50,50s22.43,50,50,50s50-22.43,50-50S347.57,170,320,170z"/></g></g></g><text x="0" y="527" fill="#000000" font-size="5px" font-weight="bold" font-family="'Helvetica Neue', Helvetica, Arial-Unicode, Arial, Sans-serif">Created by Flatart</text><text x="0" y="532" fill="#000000" font-size="5px" font-weight="bold" font-family="'Helvetica Neue', Helvetica, Arial-Unicode, Arial, Sans-serif">from the Noun Project</text></svg>