<svg xmlns="http://www.w3.org/2000/svg" xmlns:xlink="http://www.w3.org/1999/xlink" version="1.1" x="0px" y="0px" viewBox="0 0 512 640" style="enable-background:new 0 0 512 512;" xml:space="preserve"><g><g><g><g><path d="M370,250H150c-5.523,0-10-4.477-10-10s4.477-10,10-10h220c5.522,0,10,4.477,10,10S375.522,250,370,250z"/></g><g><path d="M256,500c-37.926,0-73.384-19.158-99.843-53.946c-2.3-3.024-2.688-7.092-1-10.496c1.688-3.404,5.16-5.558,8.959-5.558      h183.766c3.8,0,7.271,2.153,8.959,5.558c1.688,3.404,1.301,7.472-1,10.496C329.384,480.842,293.926,500,256,500z M186.305,450      c20.234,19.483,44.409,30,69.695,30s49.461-10.517,69.694-30H186.305z"/></g><g><path d="M383.698,300H128.302c-2.887,0-5.633-1.248-7.532-3.423c-1.899-2.175-2.766-5.063-2.376-7.925      c3.642-26.782,12.117-52.549,24.508-74.514c12.577-22.293,29.214-40.829,48.114-53.604C210.889,147.101,233.36,140,256,140      s45.111,7.101,64.984,20.534c18.899,12.775,35.537,31.312,48.114,53.604c12.391,21.964,20.866,47.73,24.509,74.514      c0.389,2.861-0.478,5.75-2.377,7.925C389.332,298.752,386.585,300,383.698,300z M140.082,280h231.836      c-3.917-20.173-10.829-39.354-20.239-56.034C328.746,183.314,293.872,160,256,160s-72.746,23.314-95.68,63.966      C150.911,240.646,143.999,259.827,140.082,280z"/></g><g><path d="M384.827,350H127.172c-5.177,0-9.498-3.951-9.96-9.107c-0.464-5.18-0.759-10.332-0.876-15.313      c-0.044-1.853-0.073-3.711-0.073-5.579c0-10.408,0.716-20.955,2.13-31.348c0.674-4.956,4.907-8.652,9.909-8.652h255.396      c5.002,0,9.235,3.696,9.909,8.653c1.412,10.393,2.129,20.939,2.129,31.347c0,1.868-0.028,3.727-0.072,5.58      c-0.118,5.001-0.413,10.153-0.877,15.314C394.324,346.05,390.004,350,384.827,350z M136.505,330h238.989      c0.079-1.646,0.138-3.278,0.176-4.894c0.04-1.696,0.066-3.396,0.066-5.106c0-6.634-0.318-13.33-0.95-20H137.213      c-0.631,6.669-0.95,13.366-0.95,20c0,1.71,0.027,3.41,0.067,5.107C136.369,326.72,136.427,328.353,136.505,330z"/></g><g><path d="M374.249,400H137.751c-4.265,0-8.061-2.705-9.453-6.737c-4.34-12.57-7.552-25.786-9.546-39.277      c-0.617-4.171-1.135-8.576-1.54-13.093c-0.251-2.796,0.686-5.568,2.58-7.641s4.573-3.252,7.38-3.252h257.655      c2.808,0,5.485,1.18,7.38,3.252c1.895,2.071,2.831,4.844,2.58,7.64c-0.403,4.512-0.922,8.917-1.539,13.094      c-1.997,13.497-5.208,26.712-9.547,39.278C382.31,397.295,378.514,400,374.249,400z M145.018,380h221.964      c2.845-9.354,5.02-19.061,6.48-28.94c0.052-0.352,0.104-0.705,0.153-1.06H138.384c0.05,0.354,0.102,0.708,0.153,1.059      C139.998,360.937,142.172,370.642,145.018,380z"/></g><g><path d="M347.883,450H164.117c-3.124,0-6.068-1.46-7.959-3.946c-4.505-5.922-8.717-12.279-12.52-18.894      c-6.045-10.518-11.206-21.922-15.339-33.897c-1.055-3.056-0.567-6.434,1.309-9.066c1.877-2.633,4.911-4.196,8.144-4.196h236.498      c3.233,0,6.267,1.563,8.144,4.196c1.876,2.633,2.364,6.011,1.31,9.066c-4.134,11.976-9.295,23.38-15.34,33.897      c-3.806,6.62-8.019,12.977-12.521,18.895C353.95,448.541,351.006,450,347.883,450z M169.175,430h173.65      c2.904-4.087,5.651-8.379,8.197-12.808c3.146-5.472,6.027-11.222,8.619-17.192H152.359c2.592,5.971,5.474,11.721,8.619,17.193      C163.522,421.619,166.269,425.91,169.175,430z"/></g><g><path d="M126.333,335.344c-0.837,0-1.68-0.105-2.509-0.32C70.414,321.179,41,299.861,41,275      c0-28.808,39.643-52.782,108.763-65.775c3.823-0.72,7.713,0.844,9.978,4.005c2.264,3.162,2.49,7.349,0.579,10.736      c-15.738,27.898-24.057,61.106-24.057,96.034c0,1.71,0.027,3.41,0.067,5.107c0.074,3.135-1.327,6.124-3.784,8.072      C130.76,334.597,128.565,335.344,126.333,335.344z M133.509,233.163C83.846,245.272,61,262.7,61,275      c0,9.711,14.783,24.74,55.392,37.158C117.312,284.217,123.149,257.362,133.509,233.163z"/></g><g><path d="M385.667,335.344c-2.231,0-4.426-0.747-6.213-2.164c-2.457-1.948-3.858-4.938-3.784-8.072      c0.04-1.697,0.066-3.397,0.066-5.107c0-34.929-8.318-68.137-24.058-96.034c-1.91-3.387-1.685-7.574,0.58-10.736      c2.264-3.162,6.153-4.725,9.978-4.005C431.357,222.218,471,246.192,471,275c0,24.861-29.414,46.178-82.823,60.023      C387.348,335.238,386.505,335.344,385.667,335.344z M378.49,233.163c10.36,24.2,16.197,51.053,17.117,78.996      C436.216,299.74,451,284.711,451,275C451,262.7,428.154,245.272,378.49,233.163z"/></g><g><path d="M152.31,432.177c-0.547,0-1.099-0.045-1.65-0.137c-25.084-4.193-46.113-9.93-60.813-16.59      C71.369,407.079,62,396.834,62,385c0-17.99,21.654-32.193,64.361-42.213c2.724-0.641,5.59-0.107,7.904,1.464      c2.314,1.572,3.864,4.041,4.273,6.809c3.528,23.862,11.288,46.731,22.44,66.134c1.927,3.353,1.749,7.516-0.458,10.69      C158.632,430.6,155.549,432.177,152.31,432.177z M120.643,364.88C88.865,373.688,82,382.837,82,385      c0,1.374,2.892,6.249,16.1,12.232c9.243,4.188,21.538,8.01,36.159,11.27C128.276,394.804,123.675,380.079,120.643,364.88z"/></g><g><path d="M359.69,432.177c-3.239,0-6.321-1.576-8.21-4.293c-2.206-3.175-2.385-7.338-0.458-10.69      c11.152-19.402,18.912-42.271,22.44-66.134c0.409-2.768,1.959-5.236,4.272-6.809c2.315-1.571,5.183-2.105,7.904-1.464      C428.346,352.807,450,367.01,450,385c0,11.834-9.369,22.079-27.846,30.45c-14.7,6.66-35.729,12.396-60.813,16.59      C360.79,432.132,360.238,432.177,359.69,432.177z M391.357,364.88c-3.032,15.2-7.633,29.923-13.616,43.622      c14.621-3.26,26.916-7.082,36.159-11.27C427.107,391.249,430,386.374,430,385C430,382.837,423.135,373.688,391.357,364.88z"/></g><g><path d="M280.006,160.002c-0.886,0-1.785-0.118-2.68-0.367c-5.322-1.477-8.438-6.988-6.962-12.31l23.426-84.419      c0.069-0.251,0.148-0.499,0.237-0.743C305.373,30.963,335.301,10,368.501,10H390c22.056,0,40,17.944,40,40v10      c0,22.056-17.944,40-40,40s-40-17.944-40-40V50c0-5.523,4.478-10,10-10s10,4.477,10,10v10c0,11.028,8.972,20,20,20      s20-8.972,20-20V50c0-11.028-8.972-20-20-20h-21.499c-24.695,0-46.97,15.515-55.548,38.646l-23.317,84.028      C288.407,157.101,284.387,160.002,280.006,160.002z"/></g><g><path d="M229.995,160.002c-4.381,0-8.402-2.901-9.63-7.329l-23.317-84.028C188.469,45.515,166.194,30,141.5,30H120      c-11.028,0-20,8.972-20,20v10c0,11.028,8.972,20,20,20s20-8.972,20-20V50c0-5.523,4.477-10,10-10s10,4.477,10,10v10      c0,22.056-17.944,40-40,40S80,82.056,80,60V50c0-22.056,17.944-40,40-40h21.5c33.199,0,63.128,20.963,74.473,52.163      c0.089,0.245,0.168,0.493,0.238,0.744l23.425,84.419c1.477,5.322-1.64,10.833-6.962,12.31      C231.78,159.884,230.879,160.002,229.995,160.002z"/></g></g><g><path d="M290.03,200c-5.523,0-10.005-4.477-10.005-10s4.472-10,9.994-10h0.011c5.522,0,10,4.477,10,10S295.553,200,290.03,200z"/></g><g><path d="M220.03,200c-5.522,0-10.005-4.477-10.005-10s4.472-10,9.995-10h0.01c5.523,0,10,4.477,10,10S225.553,200,220.03,200z"/></g></g></g><text x="0" y="527" fill="#000000" font-size="5px" font-weight="bold" font-family="'Helvetica Neue', Helvetica, Arial-Unicode, Arial, Sans-serif">Created by Flatart</text><text x="0" y="532" fill="#000000" font-size="5px" font-weight="bold" font-family="'Helvetica Neue', Helvetica, Arial-Unicode, Arial, Sans-serif">from the Noun Project</text></svg>