<svg xmlns="http://www.w3.org/2000/svg" xmlns:xlink="http://www.w3.org/1999/xlink" version="1.1" x="0px" y="0px" viewBox="0 0 512 640" style="enable-background:new 0 0 512 512;" xml:space="preserve"><g><g><g><g><path d="M53.787,375.027c-1.072,0-2.152-0.172-3.199-0.525c-3.396-1.147-5.918-4.023-6.611-7.54      c-2.715-13.77-4.092-27.888-4.092-41.962c0-57.421,22.277-111.408,62.727-152.014C143.072,132.369,196.87,110,254.094,110      c57.225,0,111.023,22.369,151.484,62.986c40.449,40.606,62.727,94.593,62.727,152.014c0,13.584-1.288,27.235-3.828,40.576      c-0.658,3.457-3.085,6.313-6.39,7.521c-3.302,1.208-7.001,0.591-9.734-1.626c-6.678-5.419-14.73-8.294-23.293-8.316      c-0.193,0.007-0.358,0.014-0.527,0.011c-3.574,0-6.879-1.908-8.665-5.008c-3.139-5.449-7.631-10.058-12.989-13.328      c-3.194-1.949-5.033-5.52-4.766-9.252c0.255-3.557,0.385-7.115,0.385-10.578c0-79.953-64.779-145-144.403-145      s-144.402,65.047-144.402,145c0,3.828,0.155,7.737,0.461,11.617c0.284,3.601-1.396,7.075-4.395,9.088      c-4.75,3.189-8.77,7.495-11.626,12.453c-1.786,3.1-5.091,5.008-8.665,5.008c-0.17,0.002-0.351-0.004-0.526-0.011      c-9.027,0.024-17.733,3.347-24.525,9.359C58.56,374.158,56.193,375.027,53.787,375.027z M254.094,130      c-107.088,0-194.21,87.477-194.21,195c0,7.795,0.465,15.603,1.387,23.345c5.858-2.686,12.149-4.37,18.618-4.956      c2.855-3.979,6.22-7.597,9.98-10.733c-0.118-2.564-0.178-5.125-0.178-7.655c0-90.981,73.75-165,164.402-165      s164.403,74.019,164.403,165c0,2.061-0.04,4.148-0.12,6.249c4.479,3.445,8.443,7.546,11.739,12.143      c5.816,0.533,11.517,1.962,16.886,4.21c0.866-7.505,1.303-15.064,1.303-22.602C448.305,217.477,361.183,130,254.094,130z"/></g><g><path d="M100.183,347.403c-1.483,0-2.972-0.33-4.352-0.997c-3.199-1.547-5.336-4.675-5.616-8.217      c-0.347-4.4-0.523-8.839-0.523-13.189c0-90.981,73.75-165,164.402-165s164.403,74.019,164.403,165      c0,3.937-0.146,7.978-0.436,12.01c-0.25,3.479-2.294,6.576-5.395,8.174c-3.102,1.599-6.81,1.464-9.788-0.353      c-2.459-1.5-5.087-2.711-7.811-3.599c-3.708-1.208-7.578-1.82-11.502-1.82c-7.158,0-14.118,2.052-20.129,5.935      c-3.244,2.098-7.408,2.137-10.693,0.101c-3.284-2.035-5.103-5.781-4.669-9.621c0.407-3.616,0.614-7.259,0.614-10.826      c0-52.383-42.436-95-94.595-95c-52.16,0-94.595,42.617-94.595,95c0,3.042,0.145,6.11,0.431,9.13      c0.086,0.528,0.131,1.071,0.131,1.625c0,5.521-4.476,9.998-9.997,10c-0.008,0-0.016,0-0.023,0c-1.729,0-3.46-0.447-5.014-1.348      c-5.639-3.268-12.068-4.995-18.594-4.995c-3.924,0-7.793,0.612-11.5,1.82c-3.238,1.055-6.324,2.56-9.174,4.474      C104.082,346.831,102.137,347.403,100.183,347.403z M254.094,180c-78.593,0-142.724,63.375-144.37,141.904      c9.63-2.946,20.063-3.271,29.845-0.959C141.707,259.406,192.26,210,254.094,210c61.985,0,112.633,49.646,114.54,111.394      c9.646-2.61,20.101-2.636,29.819-0.014C396.532,243.093,332.513,180,254.094,180z"/></g><g><path d="M358.024,346.948c-0.375,0-0.753-0.021-1.134-0.064c-5.488-0.618-9.435-5.569-8.815-11.058      c0.407-3.616,0.614-7.259,0.614-10.826c0-52.383-42.436-95-94.595-95c-52.16,0-94.595,42.617-94.595,95      c0,3.249,0.166,6.528,0.492,9.746c0.557,5.495-3.446,10.401-8.941,10.958c-5.491,0.546-10.4-3.446-10.958-8.94      c-0.394-3.886-0.593-7.844-0.593-11.764c0-63.411,51.407-115,114.595-115s114.595,51.589,114.595,115      c0,4.313-0.249,8.711-0.741,13.068C367.373,343.176,363.045,346.948,358.024,346.948z"/></g><g><path d="M308.883,335c-5.522,0-10-4.478-10-10c0-24.813-20.092-45-44.789-45c-24.696,0-44.788,20.187-44.788,45      c0,5.522-4.477,10-10,10s-10-4.478-10-10c0-35.841,29.063-65,64.788-65s64.789,29.159,64.789,65      C318.883,330.522,314.405,335,308.883,335z"/></g><g><path d="M407.763,470h-77.768c-5.522,0-10-4.478-10-10s4.478-10,10-10h77.768c5.522,0,10,4.478,10,10S413.285,470,407.763,470z"/></g><g><path d="M178.194,470h-77.768c-5.523,0-10-4.478-10-10s4.477-10,10-10h77.768c5.523,0,10,4.478,10,10S183.717,470,178.194,470z"/></g><g><path d="M460.436,470H312.611c-18.556,0-33.651-15.137-33.651-33.743c0-7.184,2.234-14.051,6.461-19.859      c3.05-4.19,6.942-7.564,11.387-9.937c-0.073-0.945-0.109-1.896-0.109-2.852c0-18.099,13.129-33.181,30.338-36.172      c2.616-15.87,11.758-29.98,25.55-38.89c9.251-5.977,19.964-9.136,30.98-9.136c6.03,0,11.984,0.943,17.697,2.805      c4.199,1.368,8.247,3.232,12.031,5.54c6.593,4.024,12.328,9.367,16.82,15.635c11.229,1.029,22.021,5.395,30.839,12.549      c5.007,4.063,9.25,8.858,12.612,14.253c5.073,8.136,8.014,17.392,8.59,26.96C493.172,404.407,500,416.81,500,430.321      C500,452.2,482.252,470,460.436,470z M333.307,386.898c-9.158,0-16.608,7.496-16.608,16.711c0,2.004,0.35,3.965,1.038,5.827      c1.024,2.771,0.771,5.854-0.692,8.421c-1.463,2.566-3.986,4.354-6.894,4.885c-3.429,0.625-6.468,2.552-8.558,5.424      c-1.723,2.367-2.633,5.164-2.633,8.091c0,7.578,6.124,13.743,13.651,13.743h147.824c10.788,0,19.564-8.828,19.564-19.679      c0-7.85-4.631-14.94-11.797-18.064c-3.815-1.664-6.201-5.516-5.991-9.672c0.032-0.644,0.049-1.292,0.049-1.943      c0-7.053-1.959-13.923-5.666-19.867c-2.188-3.511-4.962-6.641-8.243-9.304c-6.678-5.418-14.729-8.293-23.292-8.315      c-0.193,0.007-0.364,0.013-0.527,0.011c-3.574,0-6.879-1.908-8.665-5.008c-3.139-5.449-7.631-10.058-12.989-13.328      c-2.458-1.499-5.086-2.71-7.81-3.598c-3.708-1.208-7.578-1.82-11.502-1.82c-7.158,0-14.118,2.052-20.129,5.935      c-10.72,6.926-17.134,18.669-17.174,31.433c0.003,0.097,0.004,0.192,0.004,0.288c0,2.845-1.212,5.556-3.332,7.452      c-2.121,1.898-4.952,2.798-7.775,2.486C334.521,386.935,333.896,386.898,333.307,386.898z"/></g><g><path d="M197.389,470H49.565C27.749,470,10,452.2,10,430.321c0-13.512,6.828-25.914,17.844-33.168      c0.576-9.567,3.517-18.823,8.591-26.961c2.919-4.681,6.527-8.938,10.726-12.653c9.179-8.127,20.645-13.056,32.729-14.15      c4.008-5.584,9.021-10.461,14.721-14.288c4.382-2.942,9.136-5.259,14.127-6.885c5.71-1.86,11.665-2.804,17.696-2.804      c10.043,0,19.94,2.659,28.623,7.69c14.926,8.651,25.082,23.587,27.892,40.332c17.218,2.984,30.354,18.069,30.354,36.175      c0,0.964-0.037,1.924-0.111,2.878c4.936,2.647,9.209,6.521,12.333,11.294c3.609,5.513,5.517,11.902,5.517,18.476      C231.041,454.863,215.944,470,197.389,470z M84.939,363.155c-9.027,0.025-17.732,3.347-24.523,9.359      c-2.755,2.438-5.113,5.217-7.011,8.26c-3.707,5.945-5.667,12.815-5.667,19.867c0,0.651,0.017,1.3,0.049,1.943      c0.21,4.156-2.176,8.008-5.991,9.672C34.631,415.381,30,422.472,30,430.321C30,441.172,38.777,450,49.565,450h147.824      c7.528,0,13.652-6.165,13.652-13.743c0-2.672-0.779-5.272-2.251-7.522c-2.06-3.148-5.318-5.332-8.94-5.992      c-2.906-0.53-5.43-2.319-6.893-4.886c-1.463-2.567-1.716-5.649-0.691-8.421c0.688-1.861,1.038-3.821,1.038-5.826      c0-9.215-7.451-16.711-16.608-16.711c-0.59,0-1.214,0.036-1.854,0.107c-2.842,0.317-5.685-0.599-7.808-2.516      s-3.324-4.65-3.299-7.511c0-0.052,0.002-0.128,0.004-0.201c-0.043-13.308-7.204-25.703-18.71-32.371      c-5.638-3.268-12.068-4.995-18.594-4.995c-3.924,0-7.793,0.612-11.5,1.82c-3.238,1.055-6.324,2.56-9.174,4.474      c-4.75,3.188-8.77,7.494-11.626,12.452c-1.797,3.119-5.155,4.989-8.731,5.008C85.246,363.165,85.093,363.161,84.939,363.155z"/></g></g><g><path d="M70,150c-13.785,0-25-11.215-25-25s11.215-25,25-25s25,11.215,25,25S83.785,150,70,150z M70,120c-2.757,0-5,2.243-5,5     s2.243,5,5,5s5-2.243,5-5S72.757,120,70,120z"/></g><g><path d="M475,200c-13.785,0-25-11.215-25-25s11.215-25,25-25s25,11.215,25,25S488.785,200,475,200z M475,170     c-2.757,0-5,2.243-5,5s2.243,5,5,5s5-2.243,5-5S477.757,170,475,170z"/></g><g><path d="M335,90c-13.785,0-25-11.215-25-25s11.215-25,25-25s25,11.215,25,25S348.785,90,335,90z M335,60c-2.757,0-5,2.243-5,5     s2.243,5,5,5s5-2.243,5-5S337.757,60,335,60z"/></g></g></g><text x="0" y="527" fill="#000000" font-size="5px" font-weight="bold" font-family="'Helvetica Neue', Helvetica, Arial-Unicode, Arial, Sans-serif">Created by Flatart</text><text x="0" y="532" fill="#000000" font-size="5px" font-weight="bold" font-family="'Helvetica Neue', Helvetica, Arial-Unicode, Arial, Sans-serif">from the Noun Project</text></svg>