<svg xmlns="http://www.w3.org/2000/svg" xmlns:xlink="http://www.w3.org/1999/xlink" version="1.1" x="0px" y="0px" viewBox="0 0 512 640" style="enable-background:new 0 0 512 512;" xml:space="preserve"><g><path d="M486,296h-35.316L253.682,59.598c-2.694-3.234-7.127-4.433-11.086-3.001C238.637,58.031,236,61.79,236,66v36.666L91,296H26   c-6.915,0-11.739,6.861-9.417,13.363l50,140C68.004,453.344,71.774,456,76,456h360c4.226,0,7.996-2.656,9.417-6.637l50-140   C497.743,302.85,492.902,296,486,296z M256,93.621L424.649,296H256V93.621z M236,136v160H116L236,136z M428.952,436H83.047   l-10.714-30H226c5.523,0,10-4.478,10-10s-4.477-10-10-10c-70.601,0.009-159.995-0.022-160.795,0.04L40.19,316   c16.682,0,422.963,0,431.62,0L428.952,436z"/></g><text x="0" y="527" fill="#000000" font-size="5px" font-weight="bold" font-family="'Helvetica Neue', Helvetica, Arial-Unicode, Arial, Sans-serif">Created by Flatart</text><text x="0" y="532" fill="#000000" font-size="5px" font-weight="bold" font-family="'Helvetica Neue', Helvetica, Arial-Unicode, Arial, Sans-serif">from the Noun Project</text></svg>