<svg xmlns="http://www.w3.org/2000/svg" xmlns:xlink="http://www.w3.org/1999/xlink" version="1.1" x="0px" y="0px" viewBox="0 0 512 640" style="enable-background:new 0 0 512 512;" xml:space="preserve"><g><g><g><path d="M414.691,280c-1.91,0-3.803-0.547-5.441-1.609c-9.957-6.456-19.081-14.695-27.12-24.489     c-11.131-13.558-19.61-29.305-25.202-46.805c-5.471-17.114-7.721-34.487-6.688-51.634c0.784-13.042,3.463-25.42,7.961-36.789     c1.104-2.788,3.398-4.933,6.254-5.846c2.855-0.912,5.97-0.497,8.485,1.135c10.417,6.754,19.903,15.441,28.197,25.818     c10.604,13.266,18.722,28.566,24.126,45.475c5.528,17.299,7.768,34.85,6.654,52.166c-0.826,12.852-3.494,25.051-7.929,36.258     c-1.104,2.787-3.399,4.933-6.255,5.846C416.739,279.844,415.713,280,414.691,280z M372.781,138.876     c-1.345,5.699-2.208,11.645-2.577,17.788c-0.884,14.672,1.059,29.592,5.774,44.344c4.819,15.082,12.09,28.608,21.609,40.204     c3.695,4.501,7.647,8.6,11.821,12.263c1.312-5.558,2.165-11.353,2.55-17.336c0.952-14.813-0.981-29.884-5.746-44.794     c-4.659-14.576-11.623-27.723-20.698-39.077C381.561,147.32,377.304,142.844,372.781,138.876z"/></g><g><path d="M431.86,280c-1.021,0-2.048-0.156-3.043-0.475c-2.855-0.913-5.151-3.059-6.255-5.846     c-4.434-11.205-7.102-23.404-7.928-36.258c-1.114-17.315,1.125-34.867,6.654-52.166c5.402-16.906,13.52-32.206,24.125-45.475     c8.296-10.379,17.783-19.065,28.197-25.818c2.515-1.631,5.629-2.046,8.484-1.135c2.855,0.913,5.151,3.058,6.254,5.846     c4.498,11.365,7.178,23.742,7.963,36.789c1.033,17.145-1.218,34.518-6.688,51.635c-5.594,17.5-14.072,33.247-25.202,46.805     c-8.04,9.794-17.165,18.033-27.121,24.489C435.663,279.453,433.771,280,431.86,280z M473.771,138.876     c-4.521,3.967-8.779,8.444-12.733,13.391c-9.076,11.356-16.04,24.503-20.697,39.077c-4.766,14.911-6.699,29.981-5.746,44.794     c0.385,5.984,1.238,11.779,2.549,17.336c4.175-3.664,8.126-7.761,11.821-12.263c9.52-11.596,16.79-25.123,21.61-40.204     c4.715-14.755,6.658-29.674,5.775-44.344C475.979,150.521,475.116,144.575,473.771,138.876z"/></g><g><path d="M78.139,280c-1.91,0-3.803-0.547-5.441-1.609c-9.956-6.456-19.08-14.695-27.12-24.489     c-11.13-13.558-19.609-29.305-25.202-46.805c-5.47-17.116-7.721-34.489-6.688-51.635c0.785-13.045,3.464-25.423,7.963-36.789     c1.103-2.788,3.398-4.933,6.254-5.846s5.97-0.497,8.485,1.135c10.415,6.754,19.902,15.44,28.196,25.818     c10.604,13.266,18.721,28.566,24.125,45.475c5.529,17.299,7.768,34.85,6.654,52.166c-0.826,12.852-3.494,25.051-7.929,36.258     c-1.103,2.787-3.398,4.933-6.254,5.846C80.188,279.844,79.161,280,78.139,280z M36.229,138.876     c-1.345,5.698-2.208,11.645-2.578,17.788c-0.883,14.67,1.06,29.59,5.775,44.344c4.82,15.082,12.09,28.608,21.61,40.204     c3.695,4.501,7.647,8.599,11.821,12.263c1.312-5.558,2.165-11.353,2.55-17.336c0.953-14.813-0.98-29.884-5.746-44.794     c-4.659-14.576-11.623-27.723-20.698-39.077C45.009,147.32,40.751,142.844,36.229,138.876z"/></g><g><path d="M95.309,280c-1.022,0-2.048-0.156-3.044-0.475c-2.855-0.913-5.151-3.059-6.254-5.846     c-4.435-11.206-7.102-23.405-7.929-36.258c-1.114-17.314,1.125-34.866,6.654-52.166c5.404-16.908,13.521-32.208,24.125-45.476     c8.294-10.377,17.781-19.064,28.196-25.818c2.516-1.631,5.63-2.047,8.485-1.135c2.855,0.913,5.151,3.058,6.254,5.846     c4.498,11.365,7.177,23.742,7.963,36.789c1.033,17.146-1.218,34.519-6.688,51.635c-5.594,17.5-14.073,33.248-25.203,46.805     c-8.039,9.792-17.163,18.031-27.12,24.488C99.112,279.453,97.219,280,95.309,280z M137.218,138.876     c-4.521,3.968-8.779,8.444-12.733,13.391c-9.076,11.354-16.04,24.502-20.698,39.077c-4.766,14.911-6.699,29.982-5.746,44.793     c0.385,5.984,1.238,11.779,2.549,17.336c4.174-3.664,8.126-7.762,11.821-12.262c9.519-11.595,16.79-25.122,21.61-40.204     c4.715-14.754,6.658-29.673,5.775-44.344C139.427,150.521,138.564,144.575,137.218,138.876z"/></g><g><path d="M244.691,280c-1.91,0-3.803-0.547-5.441-1.609c-9.957-6.457-19.081-14.696-27.12-24.489     c-11.129-13.557-19.608-29.304-25.202-46.805c-5.47-17.116-7.721-34.489-6.688-51.635c0.786-13.047,3.465-25.424,7.963-36.789     c1.103-2.788,3.398-4.933,6.254-5.846c2.855-0.913,5.97-0.497,8.485,1.135c10.415,6.754,19.902,15.44,28.196,25.818     c10.605,13.268,18.722,28.567,24.125,45.475c5.529,17.3,7.768,34.852,6.654,52.167c-0.826,12.853-3.493,25.051-7.928,36.257     c-1.103,2.787-3.398,4.933-6.254,5.846C246.74,279.844,245.713,280,244.691,280z M202.782,138.876     c-1.346,5.698-2.208,11.644-2.579,17.789c-0.883,14.67,1.06,29.589,5.775,44.343c4.821,15.082,12.091,28.609,21.61,40.204     c3.695,4.501,7.647,8.599,11.821,12.263c1.311-5.557,2.165-11.353,2.549-17.336c0.953-14.812-0.98-29.883-5.746-44.794     c-4.658-14.575-11.622-27.723-20.698-39.077C211.561,147.32,207.303,142.844,202.782,138.876z"/></g><g><path d="M261.86,280c-1.021,0-2.048-0.156-3.043-0.475c-2.856-0.913-5.151-3.059-6.254-5.846     c-4.435-11.206-7.102-23.405-7.929-36.258c-1.113-17.316,1.125-34.868,6.655-52.166c5.403-16.906,13.52-32.206,24.125-45.475     c8.296-10.379,17.783-19.065,28.197-25.818c2.516-1.631,5.629-2.046,8.484-1.135c2.855,0.913,5.151,3.058,6.254,5.846     c4.498,11.365,7.178,23.742,7.963,36.789c1.033,17.145-1.218,34.518-6.688,51.635c-5.594,17.5-14.072,33.247-25.202,46.805     c-8.04,9.794-17.165,18.033-27.121,24.489C265.663,279.453,263.771,280,261.86,280z M303.771,138.876     c-4.521,3.967-8.779,8.444-12.733,13.391c-9.076,11.356-16.04,24.503-20.697,39.077c-4.766,14.91-6.699,29.981-5.747,44.794     c0.385,5.983,1.238,11.779,2.55,17.336c4.174-3.664,8.126-7.762,11.821-12.263c9.52-11.596,16.79-25.123,21.61-40.204     c4.715-14.755,6.658-29.674,5.775-44.344C305.979,150.521,305.116,144.575,303.771,138.876z"/></g><g><path d="M455,350H55c-24.813,0-45-20.187-45-45s20.187-45,45-45h400c24.813,0,45,20.187,45,45S479.813,350,455,350z M55,280     c-13.785,0-25,11.215-25,25s11.215,25,25,25h400c13.785,0,25-11.215,25-25s-11.215-25-25-25H55z"/></g><g><path d="M95,100c-13.785,0-25-11.215-25-25s11.215-25,25-25s25,11.215,25,25S108.785,100,95,100z M95,70c-2.757,0-5,2.243-5,5     s2.243,5,5,5s5-2.243,5-5S97.757,70,95,70z"/></g><g><path d="M405,110c-13.785,0-25-11.215-25-25s11.215-25,25-25s25,11.215,25,25S418.785,110,405,110z M405,80c-2.757,0-5,2.243-5,5     s2.243,5,5,5s5-2.243,5-5S407.757,80,405,80z"/></g><g><path d="M260,70c-16.542,0-30-13.458-30-30s13.458-30,30-30s30,13.458,30,30S276.542,70,260,70z M260,30c-5.514,0-10,4.486-10,10     s4.486,10,10,10c5.514,0,10-4.486,10-10S265.514,30,260,30z"/></g><g><path d="M353.306,500H156.695c-37.904,0-71.199-25.579-80.965-62.204l-25.392-95.22c-0.8-3.001-0.16-6.205,1.733-8.669     C53.963,331.444,56.893,330,60,330h390c3.106,0,6.037,1.444,7.93,3.907c1.893,2.464,2.533,5.668,1.732,8.669l-25.392,95.22     C424.504,474.421,391.21,500,353.306,500z M73.016,350l22.038,82.644C102.49,460.526,127.837,480,156.695,480h196.611     c28.857,0,54.205-19.474,61.641-47.356L436.984,350H73.016z"/></g><g><path d="M360,390H80c-5.523,0-10-4.478-10-10s4.477-10,10-10h280c5.522,0,10,4.478,10,10S365.522,390,360,390z"/></g><g><path d="M490,500H70c-5.523,0-10-4.478-10-10s4.477-10,10-10h420c5.522,0,10,4.478,10,10S495.522,500,490,500z"/></g><g><path d="M390,390c-2.63,0-5.21-1.07-7.07-2.931c-1.86-1.859-2.93-4.439-2.93-7.069s1.069-5.21,2.93-7.07S387.37,370,390,370     s5.21,1.069,7.069,2.93c1.86,1.86,2.931,4.44,2.931,7.07s-1.07,5.21-2.931,7.069C395.21,388.93,392.63,390,390,390z"/></g></g></g><text x="0" y="527" fill="#000000" font-size="5px" font-weight="bold" font-family="'Helvetica Neue', Helvetica, Arial-Unicode, Arial, Sans-serif">Created by Flatart</text><text x="0" y="532" fill="#000000" font-size="5px" font-weight="bold" font-family="'Helvetica Neue', Helvetica, Arial-Unicode, Arial, Sans-serif">from the Noun Project</text></svg>