<svg xmlns="http://www.w3.org/2000/svg" xmlns:xlink="http://www.w3.org/1999/xlink" version="1.1" x="0px" y="0px" viewBox="0 0 512 640" style="enable-background:new 0 0 512 512;" xml:space="preserve"><g><g><g><path d="M232.817,470C232.815,470,232.818,470,232.817,470c-26.877,0-53.499-6.019-76.986-17.406     c-24.137-11.702-45.038-29.143-60.442-50.436c-2.78-3.843-2.478-9.111,0.724-12.611c3.202-3.499,8.423-4.27,12.497-1.841     c22.078,13.155,47.866,20.108,74.578,20.108c42.866-0.002,85.514-18.064,117.011-49.556     c38.275-38.271,48.229-114.072,57.854-187.377c0.827-6.298,1.654-12.599,2.499-18.883c0.354-2.63,1.739-5.013,3.851-6.622     c2.11-1.609,4.775-2.314,7.405-1.955c22.072,2.995,77.784,10.011,118.308,10.482c3.565,0.042,6.839,1.978,8.592,5.083     c1.753,3.104,1.721,6.908-0.086,9.982c-16.295,27.736-31.061,59.404-46.694,92.931     c-34.917,74.885-71.023,152.319-126.062,183.374C297.199,461.449,265.021,470,232.817,470z M145.993,423.737     C170.708,440.582,201,450,232.816,450c28.769,0,57.546-7.657,83.222-22.145c49.45-27.902,84.179-102.381,117.764-174.408     c12.635-27.098,25.63-54.966,39.333-80.042c-33.342-1.506-71.519-5.943-94.076-8.852c-0.394,2.977-0.784,5.954-1.175,8.931     c-10.061,76.617-20.464,155.843-63.544,198.916c-35.219,35.214-83.021,55.411-131.151,55.413     C170.542,427.814,158.066,426.435,145.993,423.737z"/></g><g><path d="M183.197,427.814c-0.003,0-0.006,0-0.009,0c-30.318-0.002-59.647-7.93-84.815-22.927     c-11.272-6.717-21.705-14.837-31.006-24.136c-31.938-31.935-48.59-75.285-46.888-122.067     c1.692-46.496,21.339-90.815,55.321-124.794c42.721-42.715,122.819-53.733,200.28-64.389     c37.283-5.129,75.836-10.432,108.672-19.166c3.446-0.916,7.119,0.071,9.64,2.591c2.521,2.521,3.511,6.193,2.596,9.639     c-7.115,26.795-11.787,56.196-16.612,92.096c-0.843,6.265-1.667,12.545-2.491,18.823     c-10.061,76.617-20.464,155.842-63.544,198.916C279.119,407.617,231.32,427.814,183.197,427.814z M373.695,73.628     c-29.963,6.756-62.888,11.285-94.89,15.688C204.62,99.52,127.908,110.072,89.942,148.034     c-30.398,30.394-47.969,69.948-49.476,111.378c-1.498,41.166,13.078,79.236,41.042,107.196     c8.131,8.129,17.25,15.228,27.102,21.098c22.074,13.153,47.863,20.106,74.579,20.108c42.861,0.002,85.51-18.061,117.01-49.556     c38.275-38.271,48.229-114.072,57.854-187.377c0.827-6.298,1.654-12.599,2.499-18.884     C364.54,122.338,368.439,96.966,373.695,73.628z"/></g><g><path d="M30,428.11c-2.56,0-5.119-0.977-7.072-2.93c-3.905-3.905-3.904-10.237,0.001-14.142l268.306-268.27     c3.905-3.904,10.238-3.903,14.142,0.001c3.905,3.906,3.905,10.237-0.001,14.143L37.071,425.182     C35.118,427.134,32.559,428.11,30,428.11z"/></g><g><path d="M301.588,211.899h-48.783c-5.523,0-10-4.477-10-10s4.477-10,10-10h48.783c5.522,0,10,4.477,10,10     S307.11,211.899,301.588,211.899z"/></g><g><path d="M285.327,276.935h-97.565c-5.523,0-10-4.478-10-10s4.477-10,10-10h97.565c5.522,0,10,4.478,10,10     S290.85,276.935,285.327,276.935z"/></g><g><path d="M252.805,341.969H122.718c-5.523,0-10-4.478-10-10s4.477-10,10-10h130.087c5.523,0,10,4.478,10,10     S258.328,341.969,252.805,341.969z"/></g><g><path d="M252.805,211.899c-5.523,0-10-4.477-10-10v-48.776c0-5.523,4.477-10,10-10s10,4.477,10,10v48.776     C262.805,207.422,258.328,211.899,252.805,211.899z"/></g><g><path d="M187.762,276.935c-5.523,0-10-4.478-10-10v-97.552c0-5.523,4.477-10,10-10s10,4.477,10,10v97.552     C197.762,272.457,193.285,276.935,187.762,276.935z"/></g><g><path d="M122.718,341.969c-5.523,0-10-4.478-10-10V201.899c0-5.523,4.477-10,10-10s10,4.477,10,10v130.069     C132.718,337.491,128.241,341.969,122.718,341.969z"/></g></g></g><text x="0" y="527" fill="#000000" font-size="5px" font-weight="bold" font-family="'Helvetica Neue', Helvetica, Arial-Unicode, Arial, Sans-serif">Created by Flatart</text><text x="0" y="532" fill="#000000" font-size="5px" font-weight="bold" font-family="'Helvetica Neue', Helvetica, Arial-Unicode, Arial, Sans-serif">from the Noun Project</text></svg>