<svg xmlns="http://www.w3.org/2000/svg" xmlns:xlink="http://www.w3.org/1999/xlink" version="1.1" x="0px" y="0px" viewBox="0 0 512 640" style="enable-background:new 0 0 512 512;" xml:space="preserve"><g><g><g><path d="M225.813,410.079c-9.725,0-19.338-2.582-27.801-7.467c-12.883-7.436-22.094-19.445-25.938-33.815     c-3.841-14.361-1.855-29.356,5.591-42.223c9.421-16.318,31.49-24.716,52.831-32.836c9.884-3.761,19.219-7.313,26.98-11.447     c3.045-1.622,6.713-1.561,9.701,0.166c2.988,1.726,4.876,4.87,4.994,8.318c0.31,9.061,2.068,19.547,3.769,29.688     c3.737,22.286,7.602,45.33-1.9,61.797C264.137,399.42,245.657,410.079,225.813,410.079z M253.486,306.191     c-5.208,2.18-10.59,4.228-15.876,6.239c-18.072,6.876-36.759,13.987-42.629,24.153c-4.773,8.247-6.045,17.85-3.585,27.046     c2.462,9.205,8.363,16.898,16.615,21.661c5.427,3.133,11.583,4.788,17.802,4.788c12.72,0,24.563-6.827,30.906-17.816     c5.912-10.245,2.651-29.688-0.502-48.491C255.243,317.959,254.25,312.039,253.486,306.191z"/></g><g><path d="M234.086,470.002c-3.456,0-6.817-1.794-8.669-5.002L22.71,113.883c-2.762-4.783-1.123-10.899,3.66-13.66     c4.782-2.762,10.898-1.123,13.66,3.66L242.737,455c2.762,4.783,1.123,10.899-3.66,13.66     C237.502,469.569,235.782,470.002,234.086,470.002z"/></g><g><path d="M154.504,299.852c-7.528,0-14.97-1.999-21.52-5.78c-9.966-5.752-17.098-15.043-20.08-26.161     c-2.982-11.12-1.457-22.733,4.297-32.7c7.315-12.67,23.76-18.933,39.663-24.989c7.1-2.704,13.807-5.258,19.29-8.186     c3.046-1.626,6.715-1.566,9.706,0.159c2.991,1.725,4.881,4.871,4.999,8.321c0.218,6.396,1.422,13.579,2.697,21.183     c2.788,16.628,5.67,33.823-1.713,46.596C184.183,291.587,169.873,299.852,154.504,299.852z M172.33,225.679     c-2.773,1.11-5.578,2.178-8.347,3.232c-12.047,4.588-25.701,9.788-29.46,16.297c-3.082,5.339-3.898,11.561-2.3,17.52     c1.598,5.96,5.42,10.939,10.761,14.021c3.514,2.029,7.499,3.102,11.521,3.102c8.24,0,15.91-4.428,20.017-11.555     c3.792-6.561,1.411-20.762-0.689-33.292C173.315,231.922,172.792,228.799,172.33,225.679z"/></g><g><path d="M107.043,198.839c-9.716,0-19.319-2.579-27.771-7.458c-12.873-7.431-22.084-19.432-25.936-33.793     c-3.852-14.363-1.881-29.362,5.55-42.235c9.417-16.312,31.466-24.709,52.789-32.829c9.913-3.775,19.275-7.34,27.053-11.494     c3.048-1.627,6.719-1.566,9.711,0.162c2.992,1.728,4.88,4.877,4.994,8.33c0.3,9.099,2.065,19.626,3.771,29.808     c3.729,22.245,7.585,45.248-1.907,61.67C145.387,188.169,126.896,198.839,107.043,198.839z M134.735,94.942     c-5.229,2.191-10.633,4.25-15.943,6.272c-18.055,6.875-36.725,13.985-42.585,24.137c-4.759,8.245-6.021,17.854-3.553,27.056     c2.468,9.202,8.37,16.892,16.617,21.652c5.417,3.126,11.563,4.779,17.773,4.779c12.729,0,24.583-6.837,30.936-17.842     c5.897-10.204,2.646-29.602-0.5-48.361C136.499,106.786,135.5,100.829,134.735,94.942z"/></g><g><path d="M152.122,440.371c-16.377,0-31.561-12.526-46.244-24.641c-6.584-5.433-13.393-11.05-19.729-14.986     c-2.933-1.823-4.719-5.03-4.722-8.483c-0.004-3.453,1.775-6.664,4.704-8.493c6.116-3.818,12.515-9.03,19.29-14.548     c14.956-12.183,30.422-24.779,46.701-24.779c26.456,0,47.98,21.511,47.98,47.951     C200.102,418.848,178.578,440.371,152.122,440.371z M108.667,392.251c3.357,2.622,6.674,5.357,9.939,8.052     c11.959,9.866,24.325,20.068,33.516,20.068c15.428,0,27.98-12.552,27.98-27.979c0-15.412-12.552-27.951-27.98-27.951     c-9.165,0-22.396,10.777-34.07,20.286C114.963,387.242,111.827,389.796,108.667,392.251z"/></g><g><path d="M89.426,339.852c-17.313,0-33.513-13.365-49.18-26.291c-7.041-5.81-14.321-11.816-21.114-16.052     c-2.929-1.827-4.709-5.035-4.708-8.488c0.001-3.452,1.783-6.66,4.713-8.485c6.601-4.111,13.486-9.72,20.776-15.657     c15.903-12.954,32.348-26.349,49.514-26.349c27.943,0,50.676,22.733,50.676,50.676     C140.102,317.132,117.369,339.852,89.426,339.852z M41.723,289.038c3.801,2.948,7.557,6.047,11.251,9.095     c12.942,10.678,26.324,21.719,36.452,21.719c16.915,0,30.676-13.748,30.676-30.646c0-16.915-13.761-30.676-30.676-30.676     c-10.051,0-24.306,11.611-36.883,21.855C48.983,283.284,45.367,286.229,41.723,289.038z"/></g><g><path d="M450.179,378.234c-9.722,0-19.333-2.581-27.793-7.465c-12.874-7.432-22.084-19.433-25.936-33.793     c-3.853-14.363-1.882-29.362,5.549-42.235c9.418-16.313,31.467-24.71,52.79-32.83c9.912-3.774,19.274-7.34,27.053-11.493     c3.046-1.627,6.717-1.566,9.711,0.162c2.992,1.728,4.88,4.877,4.993,8.331c0.301,9.099,2.065,19.626,3.772,29.808     c3.729,22.245,7.585,45.247-1.907,61.67C488.515,367.56,470.03,378.234,450.179,378.234z M477.849,274.331     c-5.229,2.191-10.633,4.249-15.942,6.271c-18.055,6.876-36.725,13.986-42.586,24.139c-4.759,8.245-6.021,17.854-3.554,27.055     c2.469,9.202,8.37,16.892,16.617,21.652c5.425,3.132,11.578,4.787,17.795,4.787c12.723,0,24.567-6.837,30.91-17.844     c5.901-10.209,2.649-29.607-0.496-48.366C479.612,286.174,478.614,280.217,477.849,274.331z"/></g><g><path d="M458.426,438.124c-3.457,0-6.817-1.794-8.67-5.002L247.049,82.039c-2.762-4.783-1.123-10.898,3.66-13.66     c4.784-2.762,10.898-1.123,13.66,3.66l202.707,351.083c2.762,4.783,1.123,10.898-3.66,13.66     C461.842,437.691,460.122,438.124,458.426,438.124z"/></g><g><path d="M340.816,188.839c-9.717,0-19.319-2.579-27.771-7.458c-26.567-15.353-35.713-49.471-20.39-76.057     c9.422-16.321,31.467-24.705,52.786-32.813c9.912-3.77,19.275-7.331,27.064-11.484c3.046-1.625,6.717-1.563,9.708,0.166     c2.99,1.728,4.878,4.876,4.991,8.329c0.3,9.083,2.063,19.599,3.77,29.769c3.73,22.25,7.589,45.256-1.901,61.703     C379.159,178.169,360.669,188.839,340.816,188.839z M368.509,84.935c-5.234,2.192-10.645,4.249-15.958,6.27     c-18.049,6.864-36.711,13.961-42.571,24.112c-9.818,17.036-3.958,38.906,13.068,48.745c5.412,3.124,11.558,4.777,17.769,4.777     c12.729,0,24.583-6.837,30.935-17.842c5.9-10.225,2.646-29.631-0.501-48.398C370.271,96.758,369.273,90.811,368.509,84.935z"/></g><g><path d="M371.113,423.884c-19.001,0-37.02-14.866-54.445-29.243c-7.938-6.549-16.146-13.32-23.842-18.12     c-2.93-1.827-4.71-5.035-4.709-8.488c0.001-3.452,1.782-6.66,4.713-8.485c7.479-4.658,15.24-10.98,23.458-17.674     c17.692-14.41,35.986-29.312,54.825-29.312c30.682,0,55.644,24.977,55.644,55.678     C426.757,398.922,401.795,423.884,371.113,423.884z M315.525,368.048c4.687,3.589,9.321,7.412,13.871,11.166     c14.7,12.129,29.901,24.67,41.717,24.67c19.654,0,35.644-15.99,35.644-35.645c0-19.673-15.989-35.678-35.644-35.678     c-11.724,0-27.214,12.617-42.194,24.818C324.516,360.967,320.034,364.616,315.525,368.048z"/></g><g><path d="M317.01,299.294c-15.627,0-30.008-11.865-43.915-23.339c-6.145-5.069-12.498-10.312-18.386-13.983     c-2.929-1.827-4.709-5.036-4.708-8.488c0.001-3.453,1.783-6.66,4.713-8.486c5.724-3.564,11.733-8.46,18.096-13.642     c14.114-11.497,28.709-23.384,44.201-23.384c25.17,0,45.647,20.489,45.647,45.674C362.657,278.816,342.18,299.294,317.01,299.294     z M277.174,253.502c2.92,2.298,5.806,4.679,8.649,7.025c11.183,9.227,22.745,18.767,31.187,18.767     c14.142,0,25.647-11.506,25.647-25.648c0-14.157-11.506-25.674-25.647-25.674c-8.378,0-20.699,10.036-31.57,18.891     C282.718,249.08,279.957,251.328,277.174,253.502z"/></g></g></g><text x="0" y="527" fill="#000000" font-size="5px" font-weight="bold" font-family="'Helvetica Neue', Helvetica, Arial-Unicode, Arial, Sans-serif">Created by Flatart</text><text x="0" y="532" fill="#000000" font-size="5px" font-weight="bold" font-family="'Helvetica Neue', Helvetica, Arial-Unicode, Arial, Sans-serif">from the Noun Project</text></svg>